<?xml version="1.0" encoding="UTF-8" standalone="no"?>
<svg
   xmlns:dc="http://purl.org/dc/elements/1.1/"
   xmlns:cc="http://creativecommons.org/ns#"
   xmlns:rdf="http://www.w3.org/1999/02/22-rdf-syntax-ns#"
   xmlns:svg="http://www.w3.org/2000/svg"
   xmlns="http://www.w3.org/2000/svg"
   xmlns:sodipodi="http://sodipodi.sourceforge.net/DTD/sodipodi-0.dtd"
   xmlns:inkscape="http://www.inkscape.org/namespaces/inkscape"
   width="47"
   height="51"
   viewBox="0 0 47 51"
   id="svg2"
   version="1.1"
   inkscape:version="0.91 r13725"
   sodipodi:docname="logo_hd47x51_Vector.svg">
  <metadata
     id="metadata9">
    <rdf:RDF>
      <cc:Work
         rdf:about="">
        <dc:format>image/svg+xml</dc:format>
        <dc:type
           rdf:resource="http://purl.org/dc/dcmitype/StillImage" />
      </cc:Work>
    </rdf:RDF>
  </metadata>
  <defs
     id="defs7" />
  <sodipodi:namedview
     pagecolor="#ffffff"
     bordercolor="#666666"
     borderopacity="1"
     objecttolerance="10"
     gridtolerance="10"
     guidetolerance="10"
     inkscape:pageopacity="0"
     inkscape:pageshadow="2"
     inkscape:window-width="1400"
     inkscape:window-height="800"
     id="namedview5"
     showgrid="false"
     inkscape:zoom="9.254902"
     inkscape:cx="12.462165"
     inkscape:cy="20.156682"
     inkscape:window-x="-8"
     inkscape:window-y="-8"
     inkscape:window-maximized="1"
     inkscape:current-layer="g3396" />
  <g
     id="g3396"
     transform="translate(26.040254,-1.8368644)">
    <path
       sodipodi:nodetypes="ccsssssscssssssccssssssccssssssssscsssscscsscccccsssssscscscssccc"
       inkscape:connector-curvature="0"
       id="path3361"
       d="m -3.9923397,47.950442 0.116209,-2.451311 c 0,0 1.3190285,-0.135736 2.6593547,-0.368444 7.7304227,-1.342162 16.041804,-5.44972 19.601266,-12.686457 0.845743,-1.719476 1.733551,-4.093927 1.972908,-5.276558 0.627569,-3.100759 0.604199,-0.944112 -0.02831,2.611191 -0.666998,3.749238 -3.233816,8.223875 -5.999558,10.90165 -2.724239,2.637592 -6.1369839,4.45067 -9.7351468,5.56283 -3.4200186,1.057098 -6.8875009,1.717722 -8.5867229,1.707099 z M -15.96665,44.022658 c -4.444778,-3.606845 -8.692484,-8.403053 -9.646566,-14.211979 -0.299803,-1.825351 -0.48465,-3.49185 -0.41077,-3.703333 0.07388,-0.211482 0.251912,0.409058 0.395627,1.378978 0.365097,2.464017 3.096348,7.808089 5.103769,9.98623 0.925553,1.004266 2.910591,2.946028 4.532874,4.105529 2.184411,1.561274 3.239826,2.282143 3.239826,2.282143 l -0.779429,1.810236 c 0,0 -1.199083,-0.644615 -2.435331,-1.647804 z m 8.6300793,-2.434002 C -13.49439,40.114955 -18.370515,36.251895 -21.130428,30.660609 -24.945004,22.932688 -23.375096,13.991235 -17.141535,7.9417689 -14.193901,5.0811869 -11.219242,3.499491 -7.4711977,2.799824 2.8864731,0.866303 11.25827,4.7131039 15.703411,13.448448 l 1.617819,4.322641 0.531796,3.624937 c 0.175935,2.250797 -0.255193,4.766815 -0.991271,6.694443 -1.144272,2.996599 -3.716894,7.125118 -6.048155,9.093448 -2.0570597,1.736816 -5.9879953,3.678822 -8.9165149,4.405038 -2.605009,0.645992 -6.5336718,0.645862 -9.2336558,-2.99e-4 z M 0.0749661,39.640163 C 7.0248992,38.670828 13.123328,33.371022 14.886146,26.768596 17.33306,17.603969 12.31808,8.3666749 3.1887981,5.2227779 0.0237291,4.132808 -4.7842527,4.074229 -8.1380277,5.0847749 -19.553463,8.5244319 -24.460879,21.785218 -17.99444,31.718704 c 3.015012,4.631541 9.0087753,7.965183 14.8155613,8.240193 0.397692,0.01883 1.861923,-0.124595 3.2538448,-0.318734 z m -9.8588768,-4.986325 c -0.3223473,-0.59299 -0.6451823,-1.774347 -0.7651483,-2.272169 -0.335119,-1.390638 0.319847,-2.729603 0.319847,-2.729603 0.4458113,-1.230594 0.9199233,-1.626815 0.9199233,-1.626815 0,0 0.002,-5.078277 0.03819,-7.20473 0.117599,-6.906931 0.03936,-9.51544 0.03936,-9.51544 l -0.351312,-0.06779 c -0.6438223,-0.124239 -2.4801423,-0.274029 -0.5529913,-0.763053 0.5500873,-0.139587 1.0219293,-0.360587 1.0219293,-0.360587 -0.03398,-1.0330131 -0.04302,-2.0613161 0.02861,-3.0924231 0.601943,-0.02578 1.22578,-0.01759 1.810463,-0.0054 0,0 0.01449,0.818308 0.05136,1.431902 -0.02963,0.761449 0.02828,1.359048 0.02828,1.359048 0,0 1.87675,-0.197629 5.372293,-0.639116 5.6859273,-0.718133 7.5102989,0.419014 10.315475,2.3816561 3.3000077,2.308855 4.8680507,8.00487 3.0107117,10.93662 -1.446216,2.282814 -3.8031028,4.570084 -10.7776214,4.647032 -7.2361063,0.07983 -8.6752753,2.162986 -9.4826603,3.594389 -0.277961,0.492793 -0.503476,0.808279 -0.474121,2.164019 0.02779,1.283297 0.231707,2.251186 0.509293,3.358032 -0.581812,-0.637333 -0.805295,-1.123547 -1.061881,-1.595572 z m 6.184455,-11.365812 c 2.9716988,-2.899038 2.3911648,-7.995647 -1.17803,-10.342114 -0.977838,-0.642852 -2.41612,-1.225024 -2.41612,-1.225024 0,0 -0.159576,3.052998 -0.159576,7.18741 l -0.05402,7.196554 1.51109,-1.084525 c 0.539947,-0.387526 1.626898,-1.078885 2.296689,-1.732301 z"
       style="fill:#000000" />
    <path
       sodipodi:nodetypes="ccccc"
       inkscape:connector-curvature="0"
       id="rect3393"
       d="m -12.32247,44.252761 7.7603815,1.437948 -0.8097569,7.146155 -9.3952406,-1.933915 z"
       style="opacity:1;fill:#ffffff;stroke:none" />
  </g>
</svg>
