<svg
   xmlns:dc="http://purl.org/dc/elements/1.1/"
   xmlns:cc="http://creativecommons.org/ns#"
   xmlns:rdf="http://www.w3.org/1999/02/22-rdf-syntax-ns#"
   xmlns:svg="http://www.w3.org/2000/svg"
   xmlns="http://www.w3.org/2000/svg"
   xmlns:xlink="http://www.w3.org/1999/xlink"
   xmlns:sodipodi="http://sodipodi.sourceforge.net/DTD/sodipodi-0.dtd"
   xmlns:inkscape="http://www.inkscape.org/namespaces/inkscape"
   id="svg2"
   version="1.1"
   inkscape:version="0.91 r13725"
   width="47"
   height="51"
   sodipodi:docname="logo_example_organisation47x51.svg">
  <metadata
     id="metadata8">
    <rdf:RDF>
      <cc:Work
         rdf:about="">
        <dc:format>image/svg+xml</dc:format>
        <dc:type
           rdf:resource="http://purl.org/dc/dcmitype/StillImage" />
        <dc:title></dc:title>
      </cc:Work>
    </rdf:RDF>
  </metadata>
  <defs
     id="defs6">
    <linearGradient
       id="linearGradient3716">
      <stop
         style="stop-color:#d4e3eb;stop-opacity:0.49803922;"
         offset="0"
         id="stop3718" />
      <stop
         id="stop3720"
         offset="1"
         style="stop-color:#d4e3eb;stop-opacity:0;" />
    </linearGradient>
    <linearGradient
       id="linearGradient3676">
      <stop
         id="stop3684"
         offset="0"
         style="stop-color:#d4e3eb;stop-opacity:0.49803922;" />
      <stop
         style="stop-color:#d4e3eb;stop-opacity:0;"
         offset="1"
         id="stop3680" />
    </linearGradient>
    <inkscape:perspective
       sodipodi:type="inkscape:persp3d"
       inkscape:vp_x="0 : 0.5 : 1"
       inkscape:vp_y="0 : 1000 : 0"
       inkscape:vp_z="1 : 0.5 : 1"
       inkscape:persp3d-origin="0.5 : 0.33333333 : 1"
       id="perspective10" />
    <linearGradient
       inkscape:collect="always"
       xlink:href="#linearGradient3716"
       id="linearGradient3714"
       x1="64.843742"
       y1="175.61958"
       x2="114.72285"
       y2="175.61958"
       gradientUnits="userSpaceOnUse"
       gradientTransform="matrix(0.15346859,0,0,0.15764193,0.55487028,5.1597651)" />
  </defs>
  <sodipodi:namedview
     pagecolor="#ffffff"
     bordercolor="#666666"
     borderopacity="1"
     objecttolerance="10"
     gridtolerance="10"
     guidetolerance="10"
     inkscape:pageopacity="0"
     inkscape:pageshadow="2"
     inkscape:window-width="1400"
     inkscape:window-height="800"
     id="namedview4"
     showgrid="false"
     showguides="true"
     inkscape:guide-bbox="true"
     inkscape:zoom="12.586667"
     inkscape:cx="18.890178"
     inkscape:cy="25.631548"
     inkscape:window-x="-8"
     inkscape:window-y="-8"
     inkscape:window-maximized="1"
     inkscape:current-layer="svg2" />
  <ellipse
     style="fill:#002452;fill-opacity:1;stroke:#000000;stroke-width:0.172224;stroke-opacity:1"
     id="path3648"
     cx="23.04022"
     cy="31.906155"
     rx="17.795919"
     ry="17.71319" />
  <path
     style="fill:#8ac2ff;fill-opacity:1;stroke:none;stroke-width:1px;stroke-linecap:butt;stroke-linejoin:miter;stroke-opacity:1"
     d="m 5.919768,27.40331 1.0242078,-1.452846 c 0.9129613,0.102264 1.5226554,0.619882 2.0484153,1.252453 l 0.390175,0.551078 0.4389456,-0.1002 0.6340343,0.551078 -0.04877,-0.400784 0.341404,0.50098 0.341402,0.250492 0.24386,-0.1002 0.975435,0.55108 0.634033,-0.851669 -0.146315,-0.150293 0.634033,-0.0501 0.243859,-0.951864 -0.585261,0.500982 -0.682806,-0.0501 -0.04877,-0.350685 -0.195086,0 -0.292631,-0.701375 -0.243859,0.100201 -0.09755,0.450882 -0.24386,-0.0501 0.09755,-0.901766 -0.585261,-0.200392 -0.195089,-0.25049 0.341403,-0.200393 0,-0.200391 -0.341403,-0.200393 0.341403,-0.551078 0.04877,-0.851667 -0.487718,0.0501 0.390175,-0.701373 0.04877,-1.001961 -0.24386,-0.1002 0.04878,-0.200391 0.195086,-0.150294 0,-1.102159 c 0.341403,-0.935831 0.682806,-0.921106 1.024209,-1.25245 l 0,-1.05206 C 9.544497,19.76659 7.2051003,22.28024 5.9197691,27.403306 Z"
     id="path3660"
     sodipodi:nodetypes="ccccccccccccccccccccccccccccccccccccccccc"
     inkscape:connector-curvature="0" />
  <path
     style="fill:#5ea9fe;fill-opacity:1;stroke:none;stroke-width:1px;stroke-linecap:butt;stroke-linejoin:miter;stroke-opacity:1"
     d="m 16.25939,27.102721 0.438946,0.701373 0.04877,0.801568 1.219296,-0.0501 c 1.733842,1.38036 1.021438,1.661383 0.78035,2.154215 l 1.707013,0.150295 0.04877,-0.350687 0.731578,0 -0.09755,-0.450881 0.195088,-0.250492 0,-0.601177 0.292631,-0.200391 -0.04877,-0.200393 -0.634033,-0.0501 -0.146316,-0.75147 0.682806,-0.601178 0.195086,-1.001961 0.04877,-0.50098 6.925596,1.001961 0.438945,0.450883 -0.146315,0.901765 0.536489,0.400784 0,0.851668 c 0,0 -0.877892,0.1002 -1.07298,0 -0.195086,-0.100201 -0.487717,0.150294 -0.487717,0.150294 l 1.414382,0.200393 c 0.391492,0.808337 0.662799,0.999403 0.926665,1.152255 l 0,2.655198 -2.731221,3.807453 -1.024208,0.150294 -0.731576,0.350687 -1.316839,-0.150294 c -0.721449,-0.307306 -0.589397,-0.71203 -0.146318,-1.152251 0.457462,-0.33127 0.04269,-0.790534 -0.390174,-1.252452 0.338327,-0.240411 0.228763,-0.634178 0.195086,-1.001962 l -1.755785,-1.302549 -0.390174,1.152255 -0.438946,0 0,0.601177 0.24386,0.0501 0,0.801568 -0.585262,-0.500979 -0.390175,-0.0501 0,0.400784 -0.292631,0.1002 -1.365609,-0.80157 -0.09755,-0.751471 -0.24386,0 -0.292631,-0.500981 0.341403,-0.400784 -0.438946,-0.601177 -0.390174,0.450882 -0.390175,0.0501 -0.146316,-0.500981 0.09755,-0.350685 0.341403,0 0.146315,-0.400786 -0.292631,-0.651274 0.438947,-0.200394 -0.04877,-1.25245 -0.78035,-0.500981 -0.585262,-0.150295 1.170523,0.751472 -0.146315,0.601177 -0.29263,-0.0501 c -0.194793,-0.33399 -0.03613,-0.667978 -1.072975,-1.001965 l 0.09755,-0.551077 -0.438947,-0.400787 0.146315,-1.352646 z"
     id="path3658"
     sodipodi:nodetypes="cccccccccccccccccccccccsccccccccccccccccccccccccccccccccccccccccccccc"
     inkscape:connector-curvature="0" />
  <path
     style="fill:#f1f6f8;fill-opacity:1;stroke:#000000;stroke-width:0.15554127px;stroke-linecap:butt;stroke-linejoin:miter;stroke-opacity:1"
     d="M 6.6025733,24.447521 C 6.3848857,14.896041 11.931615,8.9016988 21.039027,7.3139817 27.702409,7.0263765 31.121258,10.19175 34.548813,11.722613 L 35.52425,9.6685909 c 0.02705,0.1298087 0.411155,0.05923 0.553514,0.1890335 l 0.860868,1.1636146 1.024209,0.1002 1.999643,1.452844 5.950158,-0.400784 c 0.004,0.592722 0.06629,1.305145 -0.04877,1.653235 -0.745873,0.642359 -1.760158,1.468526 -1.8976,1.907479 -0.12473,0.398361 -0.289504,0.652336 -0.589761,0.797817 -0.02277,0.848324 0.174452,1.358751 -0.341405,1.953825 l -0.487714,3.456767 c -0.770209,0.491553 -1.528043,1.227615 -2.048414,2.104119 l -0.146316,0.751468 c 0.138948,0.25846 -0.3161,0.222915 -0.720656,0.726964 -0.329867,0.410993 -0.687503,0.45301 -1.376532,0.274998 l -1.219295,-0.1002 -0.195087,-0.450883 -1.560697,-0.150294 -0.341403,-0.0501 -1.072981,-1.052058 c -1.54681,-0.292955 -1.277179,-1.788748 -1.902101,-2.955781 l -1.268067,-1.60314 c -0.989644,0.363799 -1.570516,1.187718 -2.68245,2.905687 -0.135916,1.668581 -0.569916,2.017813 -0.243858,5.110004 0.08836,0.446047 0.14287,0.909617 0.252322,1.360385 0.22212,0.914777 0.514585,1.857733 0.576798,2.547265 0.515402,0.802562 1.175152,1.57547 1.07298,2.504904 0.717627,0.907726 0.623432,1.67647 0.585262,2.454805 0.72643,0.647472 0.868322,1.239467 0.82912,1.753433 -0.20713,0.508402 -0.107452,1.253165 -0.780349,1.402746 l -1.170523,-0.150294 -0.24386,-0.350687 -0.926662,-0.150295 -0.48772,-0.901765 c 0.01578,-0.935164 -0.736898,-1.870328 -1.755784,-2.805492 -0.16419,-0.36775 -0.862485,-0.879947 -0.561153,-1.109022 0.316777,-0.240819 0.05001,-1.225683 -0.519799,-1.67488 -0.42081,-0.331734 -0.572325,-0.956336 -1.113779,-1.474434 0.228139,0.330126 -0.867273,-2.20318 -0.78035,-2.605099 0.141989,-0.656532 -0.544785,-2.721326 -0.877892,-2.755395 l 0,-4.108041 c -0.596137,-2.933723 -1.475939,-6.98114 -7.189829,-4.795567 -1.157485,0.442739 -4.104034,1.56972 -8.0757437,7.851548 z"
     id="path2850"
     sodipodi:nodetypes="ccccccccccscccccsccccccccccsccccccccccsscsccsc"
     inkscape:connector-curvature="0" />
  <path
     style="fill:#d0e0e9;fill-opacity:1;stroke:none;stroke-width:0.99427491px;stroke-linecap:butt;stroke-linejoin:miter;stroke-opacity:1"
     d="m 22.982945,29.069762 c 2.796085,-3.206256 4.969753,-7.519524 7.615516,-9.895148 0.659069,1.149729 1.042192,1.177733 1.506852,2.01933 0.587958,1.064917 0.153,2.208467 0.980598,2.391245 0.754289,0.267866 1.118405,0.966056 1.872695,1.362005 l 2.029139,0.209031 c 0.07077,-0.08831 -0.121226,0.294623 0.06748,0.376609 0.481239,0.20908 1.850831,0.410589 2.031327,0.25693 l 2.241982,-4.328985 -3.072718,-7.926262 -6.096613,-2.864416 -20.679769,3.857205 -4.2920339,4.260281 -0.731581,6.045467 c 1.1863913,-2.075642 2.9318771,-4.984211 4.8772889,-6.150249 8.728942,-6.57867 10.421463,0.841756 10.291122,1.489186 l 1.024208,6.487176 0.334507,2.410595 z"
     id="path3674"
     sodipodi:nodetypes="ccscccsccccccccccc"
     inkscape:connector-curvature="0" />
  <path
     style="fill:#056eff;fill-opacity:1;stroke:none"
     d="m 29.915494,45.839399 0.438946,-0.601177 0,-0.751471 c 0,0 1.414382,-1.502943 1.560697,-1.352648 0.146316,0.150294 1.414382,-0.0501 1.414382,-0.0501 l 0.04877,-0.450883 0.731576,-0.0501 0.877894,-0.901765 0.29263,0 -0.09755,-0.450883 0.390176,-0.350688 -0.04877,-0.551078 0.487718,-0.801569 0.09755,-0.75147 0.487719,-0.500981 0.487716,0.350687 1.024209,-0.150295 0.146316,1.402745 -0.438947,0.901767 -0.146315,1.102157 -0.292632,0.100201 -0.04877,0.701372 -0.877891,0.551079 0.146316,0.300588 c -1.161498,1.862901 -3.573033,2.44177 -6.681737,2.304512 z"
     id="path3650"
     sodipodi:nodetypes="cccsccccccccccccccccccccc"
     inkscape:connector-curvature="0" />
  <path
     style="fill:#00c5ff;fill-opacity:1;stroke:none"
     d="m 32.744258,45.689105 c 3.480495,-3.697057 2.877536,-4.609023 2.877536,-4.609023 l -0.438947,0.100201 0.04877,0.500979 -0.292631,0.150294 -0.877892,0.701373 -0.682805,0.200393 -0.195089,0.450882 -1.511924,0.0501 -1.365611,1.202354 -0.04877,0.851667 -0.390176,0.551078 c 1.235375,0.233609 2.012537,-0.0034 2.877537,-0.150294 z"
     id="path3652"
     sodipodi:nodetypes="ccccccccccccc"
     inkscape:connector-curvature="0" />
  <path
     style="fill:#aad4ff;fill-opacity:1;stroke:#000000;stroke-width:0.15528668px;stroke-linecap:butt;stroke-linejoin:miter;stroke-opacity:1"
     d="m 14.490351,29.908104 c 3.916103,8.609269 6.121629,13.043732 15.847416,15.981476 5.128931,0.286528 7.879205,-3.924742 9.43067,-7.464702 0.431792,1.860865 0.301923,3.833105 0,5.711247 -1.768032,2.89922 -3.661499,5.261114 -7.486203,5.510853 C 27.921629,50.281743 22.9781,49.758034 16.629267,45.0379 9.2626308,37.653212 10.834802,33.718986 10.504192,30.208698 c 1.041867,-2.908651 2.427068,-2.455865 3.986159,-0.300594 z"
     id="path2818"
     sodipodi:nodetypes="cccccccc"
     inkscape:connector-curvature="0" />
  <path
     style="fill:#f2f2f2;stroke:url(#linearGradient3714);stroke-width:0.15554127"
     d="m 11.081099,35.847046 c 2.491676,-0.141368 5.354253,0.976759 7.080126,1.601051 -1.108068,-1.535325 -2.20362,-4.009881 -3.453731,-6.731806 -0.482058,-1.174438 -1.230071,-2.593293 -2.827284,-2.466962 -0.977657,0.717309 -1.612553,2.491744 -1.288479,4.579677 0.154492,0.972048 0.126776,2.288727 0.489368,3.01804 z"
     id="path3706"
     sodipodi:nodetypes="cccccc"
     inkscape:connector-curvature="0" />
  <path
     style="fill:#002655;fill-opacity:1;stroke:none;stroke-width:1px;stroke-linecap:butt;stroke-linejoin:miter;stroke-opacity:1"
     d="m 10.601861,32.763801 c 1.238922,0.33113 2.064307,-1.036865 2.926308,-2.254413 l 0.09755,1.953825 -2.97508,1.753432 -0.04877,-1.452844 z"
     id="path2820"
     sodipodi:nodetypes="ccccc"
     inkscape:connector-curvature="0" />
  <path
     style="fill:#00244f;fill-opacity:1;stroke:none"
     d="m 11.528525,37.923903 3.755429,-2.104119 -0.438946,-1.152255 c -1.057432,0.832544 -1.705851,1.991862 -3.852973,1.953825 l 0.53649,1.302549 z"
     id="path2822"
     sodipodi:nodetypes="ccccc"
     inkscape:connector-curvature="0" />
  <path
     style="fill:#002045;fill-opacity:1;stroke:none"
     d="m 12.308874,39.376747 c 1.418668,-0.441713 2.75446,-1.055727 3.901745,-2.054021 l 0.487717,0.851668 c -1.414721,0.717725 -2.583951,1.687616 -3.609113,2.805493 l -0.780349,-1.60314 z"
     id="path2824"
     sodipodi:nodetypes="ccccc"
     inkscape:connector-curvature="0" />
  <path
     style="fill:#002655;fill-opacity:1;stroke:none;stroke-width:1px;stroke-linecap:butt;stroke-linejoin:miter;stroke-opacity:1"
     d="m 14.259746,42.382632 c 1.289893,-0.865506 2.927448,-1.552455 3.755429,-2.655198 l 0.829121,0.80157 c -0.65052,1.496073 -1.9888,2.426978 -3.267711,3.406669 l -1.316839,-1.553041 z"
     id="path2826"
     sodipodi:nodetypes="ccccc"
     inkscape:connector-curvature="0" />
  <path
     style="fill:#002a5d;fill-opacity:1;stroke:none;stroke-width:1px;stroke-linecap:butt;stroke-linejoin:miter;stroke-opacity:1"
     d="m 16.747107,45.037829 c 4.788059,-2.492805 3.976455,-3.040756 3.950517,-3.055981 l -0.04877,0.150293 c 0.251954,0.759844 -0.09636,2.193536 -2.048417,4.108042 -0.694921,-0.321542 -1.410157,-0.622218 -1.853329,-1.202354 z"
     id="path2828"
     sodipodi:nodetypes="ccccc"
     inkscape:connector-curvature="0" />
  <path
     style="fill:#00346f;fill-opacity:1;stroke:none;stroke-width:1px;stroke-linecap:butt;stroke-linejoin:miter;stroke-opacity:1"
     d="m 20.453765,47.292243 c 1.792305,-2.861761 2.131399,-3.534531 2.145958,-3.556963 0.06644,0.705966 -0.07198,1.535533 0.341402,2.003922 l 0.390176,0.1002 c -0.204117,0.868367 -0.612892,1.736734 -0.585261,2.6051 -1.541787,-0.384086 -1.711825,-0.768171 -2.292275,-1.152256 z"
     id="path2830"
     sodipodi:nodetypes="cccccc"
     inkscape:connector-curvature="0" />
  <path
     style="fill:#003e84;fill-opacity:1;stroke:none;stroke-width:1px;stroke-linecap:butt;stroke-linejoin:miter;stroke-opacity:1"
     d="m 24.453053,48.995577 c 1.199283,-0.544674 0.682804,-3.807453 0.682804,-3.807453 l 1.902101,2.254413 c -0.191769,1.077765 -0.175841,1.972664 0.536489,2.254414 -1.024627,-0.136176 -1.979423,0.15802 -3.121394,-0.701374 z"
     id="path2832"
     sodipodi:nodetypes="ccccc"
     inkscape:connector-curvature="0" />
  <path
     style="fill:#004fa5;fill-opacity:1;stroke:none;stroke-width:1px;stroke-linecap:butt;stroke-linejoin:miter;stroke-opacity:1"
     d="m 29.330232,46.59087 c 3.213045,0.985262 2.135396,1.970525 3.121395,2.955786 -0.847863,0.182417 -1.670768,0.377652 -3.023852,0.300589 0.998146,-0.759708 0.575231,-1.968557 -0.09755,-3.256375 z"
     id="path2834"
     sodipodi:nodetypes="cccc"
     inkscape:connector-curvature="0" />
  <path
     style="fill:#005cc1;fill-opacity:1;stroke:none;stroke-width:1px;stroke-linecap:butt;stroke-linejoin:miter;stroke-opacity:1"
     d="m 35.134076,46.390477 c 0.552747,0.863779 1.105494,1.254224 1.658241,1.452844 -0.72899,0.726044 -1.582389,1.068711 -2.43859,1.402747 0.268506,-0.561316 0.04591,-1.500972 -0.195088,-2.454806 -0.180963,-0.354313 0.720012,-0.321902 0.975437,-0.400785 z"
     id="path2836"
     sodipodi:nodetypes="ccccc"
     inkscape:connector-curvature="0" />
  <path
     style="fill:#6db5ff;fill-opacity:1;stroke:none;stroke-width:1px;stroke-linecap:butt;stroke-linejoin:miter;stroke-opacity:1"
     d="m 33.17945,17.665302 c -0.199556,-1.203287 -0.154255,-2.608801 1.125592,-5.247516 0.181888,-0.375005 0.250305,-0.339584 0.253882,-0.77468 l 1.034607,-1.9837819 0.620763,0.2125471 c 0.18636,0.5331948 0.411465,0.9071968 0.689738,1.0627418 0.420789,0.148834 0.816357,0.271762 0.965631,0.141699 l 2.069213,1.487836 5.931742,-0.354246 0.06897,1.700383 -1.655371,1.346139 -0.638005,1.080453 -0.293139,0.159411 -0.03449,1.257575 -0.15519,0.549083 -0.155191,0.1417 -0.50006,3.418481 c -0.868319,0.835619 -2.06828,1.236917 -2.172672,3.028811 l -0.551789,0.389671 -0.431087,0.478234 -0.569033,0.106269 c -0.197448,-1.323196 -0.552876,-1.124164 -0.421168,-1.74159 0.110552,-0.518259 0.858703,-1.370167 1.027349,-1.675532 l 0.781121,-0.03549 0.440501,-0.320121 -1.827805,-0.389671 -0.41384,0.814767 -2.138187,-2.568289 0.06897,2.532866 -1.20704,-0.194837 c -0.486316,-0.714621 -1.898562,-1.241111 -2.207156,-2.125473 -0.292574,-0.569273 -0.07503,-1.243342 0.55179,-2.001495 l 1.034606,0.743919 1.10358,0.05314 1.241527,-0.60222 -0.03448,-1.239864 -0.844927,-2.904824 -0.569034,-1.416988 c -0.679258,1.645957 -0.366102,3.728801 -2.189916,4.870894 z"
     id="path3646"
     sodipodi:nodetypes="cscccccccccccccccccccsccccccccccccccccc"
     inkscape:connector-curvature="0" />
  <path
     style="fill:#5babfe;fill-opacity:1;stroke:none;stroke-width:1px;stroke-linecap:butt;stroke-linejoin:miter;stroke-opacity:1"
     d="m 6.6245592,21.349469 2.0002384,-4.038413 2.4830544,-1.558687 8.276849,-0.212548 c 1.483644,0.208297 1.757251,1.126845 1.979407,2.075594 1.341104,0.119694 1.444322,0.716218 1.331333,1.396026 l -0.965632,1.416987 0.275894,5.101155 0.758711,1.275288 0.206922,-3.329919 c -0.05146,-2.142364 0.484373,-2.474932 0.965632,-2.975675 5.0609,-0.01611 5.074524,-4.064634 5.310978,-7.935129 0.171361,-0.212548 0.301723,-0.425095 0.827684,-0.637644 L 33.593292,11.28886 C 17.937643,4.6390123 8.7736997,10.194918 6.6245592,21.349469 Z"
     id="path3644"
     sodipodi:nodetypes="ccccccccccccccc"
     inkscape:connector-curvature="0" />
  <g
     id="g3638"
     transform="matrix(0.15346859,0,0,0.15764193,0.55487027,5.1597651)">
    <path
       sodipodi:nodetypes="ccccccccccccccccccccsccccccccccccccccccccccccccccccccccccccccccccccccccccc"
       id="path2852"
       d="m 61.970339,50.211864 6.991525,1.588983 3.495763,-2.542373 3.177966,7.309322 3.495763,1.271187 -0.317797,-2.86017 c -2.224576,-4.449152 -4.449152,-8.898305 -6.673728,-13.347457 5.702062,2.576068 10.467597,7.952403 13.665254,9.851695 -0.990363,-4.308741 -0.693296,-7.973767 0,-11.440678 l 1.906779,-1.90678 3.177967,9.216102 c 4.801607,5.237542 6.229034,9.562221 8.580506,13.983051 2.828013,0.179706 4.216923,-0.126303 5.402543,-1.588984 -2.11894,0.655395 -3.52928,-1.060204 -4.76695,-5.402542 l -0.317794,-7.309322 -2.86017,-1.271186 -0.635593,-11.122882 3.177966,0.635593 6.991521,20.65678 c 6.80437,4.897583 10.15252,6.338964 13.66526,7.944915 0,0 2.54237,0.95339 3.81356,0.95339 1.27118,0 0,-2.224576 0,-2.224576 -6.08574,-1.61045 -10.87628,-8.401663 -16.20763,-13.029661 -3.61186,-8.804264 -1.15066,-9.927182 -1.58898,-14.936441 l 4.13135,7.309322 c 3.38983,4.828376 6.77966,9.133967 10.1695,11.440678 l -0.3178,-4.449152 c -8.90104,-12.38473 -4.3738,-12.833207 -6.35593,-19.067797 l 3.17796,0.635593 0.6356,9.216102 c 5.33376,5.351044 14.5571,8.479473 14.61864,16.84322 1.85633,-1.503435 7.01597,4.049771 8.89831,14.300848 L 140.7839,59.745762 C 135.06356,54.78896 129.34322,45.632145 123.62288,36.54661 c -2.49798,-4.570469 -1.77303,-8.335206 -0.95339,-12.076271 2.71194,1.228767 6.60138,1.672528 6.99153,4.449152 L 141.1017,52.43644 c 7.86343,5.633149 8.78728,11.960256 8.26271,18.432204 5.33697,4.581313 5.28869,11.316727 6.67373,17.478813 l -0.95339,-13.029661 -12.07628,-43.220339 5.40255,0.317797 1.90678,5.402542 5.08474,3.177966 3.17797,12.711865 1.90678,23.516949 0.95339,0.95339 -0.3178,13.347458 2.86017,-13.665255 L 162.39407,75 161.75847,50.847457 c -2.70791,-3.177966 -2.21022,-6.355932 -2.54237,-9.533898 l 1.90678,-7.309322 2.54237,0.317797 0.6356,11.440678 1.90678,6.355932 0,-11.440678 7.30932,-4.766949 -1.90678,20.021186 c 1.36453,-4.427968 3.1229,-12.416896 4.44915,-19.385593 l 5.72034,1.90678 c -0.13131,15.745836 -2.48769,27.518467 -4.13136,40.995763 5.29291,-6.699037 4.25812,-22.846825 6.35594,-34.322035 l 9.85169,-10.805084 2.22458,1.906779 -6.67373,17.79661 -4.44915,18.432204 0.95339,0.317796 8.58051,-20.656779 0,-3.81356 3.17796,-9.216101 6.99153,4.449152 11.12288,-4.131356 C 184.32202,17.952582 120.33318,-11.000072 61.970339,50.211864 Z"
       style="fill:#004ca0;fill-opacity:1;stroke:none;stroke-width:1px;stroke-linecap:butt;stroke-linejoin:miter;stroke-opacity:1"
       inkscape:connector-curvature="0" />
    <path
       sodipodi:nodetypes="ccccccccccc"
       id="path2858"
       d="m 225.615,67.868229 1.79773,-13.932401 5.16847,-12.808819 0.22472,-3.370742 6.06734,2.022445 17.75257,10.112226 25.16821,0.224716 c -7.213,2.828561 -16.11772,6.141954 -21.79747,7.865065 l -7.19091,-0.224716 c -5.68561,-4.847265 -11.30898,-9.507779 -16.40428,-12.584104 -6.17043,6.461884 -8.75711,14.459662 -10.78638,22.69633 z"
       style="fill:#003a7b;fill-opacity:1;stroke:none;stroke-width:1px;stroke-linecap:butt;stroke-linejoin:miter;stroke-opacity:1"
       inkscape:connector-curvature="0" />
    <path
       sodipodi:nodetypes="cccc"
       id="path2860"
       d="m 237.30024,97.980192 c 9.32822,9.380648 8.81457,10.761058 8.76393,10.786378 -0.23511,-1.8446 -0.16757,-3.32365 0.22472,-6.29206 -3.49563,-3.495747 -6.0242,-3.123297 -8.98865,-4.494318 z"
       style="fill:#001c41;fill-opacity:1;stroke:none;stroke-width:1px;stroke-linecap:butt;stroke-linejoin:miter;stroke-opacity:1"
       inkscape:connector-curvature="0" />
    <path
       sodipodi:nodetypes="cccccc"
       id="path3636"
       d="m 248.31133,126.51914 2.6966,-2.02244 4.94375,0.67414 c -1.19848,1.92796 -2.39697,3.2365 -3.59545,3.37075 -0.75005,0.0744 -1.42887,-0.0403 -4.49433,-1.12358 l 0.44943,-0.89887 z"
       style="fill:#001c41;fill-opacity:1;stroke:none;stroke-width:1px;stroke-linecap:butt;stroke-linejoin:miter;stroke-opacity:1"
       inkscape:connector-curvature="0" />
  </g>
  <g
     id="g3700"
     transform="matrix(0.15346859,0,0,0.15764193,1.1066603,5.4431627)">
    <path
       sodipodi:nodetypes="cccccccc"
       id="path3690"
       d="m 236.28179,117.90253 c -8.10382,-0.15889 -7.94492,0 -7.94492,0 -1.26332,-0.21973 -3.72243,0.75633 -6.67373,2.22458 -2.0043,2.77105 -4.60211,4.35509 -6.99152,6.35593 l 6.67373,-7.30932 c 1.77577,-1.13736 3.59048,-2.23579 6.19703,-2.54237 3.58318,-0.10593 6.10906,-0.21187 8.89831,-0.3178 l -0.1589,1.58898 z"
       style="fill:#9fceff;fill-opacity:1;stroke:none"
       inkscape:connector-curvature="0" />
    <path
       sodipodi:nodetypes="cccccc"
       id="path3692"
       d="m 230.56145,115.51906 c -3.23591,0.0149 -6.23479,-0.68125 -9.8517,0.47669 -5.94877,1.73878 -8.20452,3.62687 -11.12288,4.60805 l 8.89831,-5.72033 c 4.64015,-1.26155 8.60622,-0.50086 12.87076,-0.6356 l -0.79449,1.27119 z"
       style="fill:#9fceff;fill-opacity:1;stroke:none"
       inkscape:connector-curvature="0" />
    <path
       sodipodi:nodetypes="ccccccc"
       id="path3696"
       d="m 237.10517,120.63558 c -0.99437,-0.44326 -11.58406,1.13433 -11.26733,2.64407 -5.11014,1.18988 -8.08344,5.77496 -11.96071,8.92374 l 5.72033,-7.10595 c 3.9599,-3.50326 6.79111,-3.77849 9.88059,-4.79237 3.67803,-0.4587 6.40604,-0.46457 9.18721,-0.49575 l -1.56009,0.82626 z"
       style="fill:#9fceff;fill-opacity:1;stroke:none"
       inkscape:connector-curvature="0" />
    <path
       id="path3698"
       d="m 217.05509,129.66101 0,0 z"
       style="fill:none;stroke:#000000;stroke-width:1px;stroke-linecap:butt;stroke-linejoin:miter;stroke-opacity:1"
       inkscape:connector-curvature="0" />
  </g>
  <g
     style="font-style:normal;font-weight:normal;font-size:40px;line-height:100%;font-family:sans-serif;letter-spacing:0px;word-spacing:0px;fill:#000000;fill-opacity:1;stroke:none;stroke-width:1px;stroke-linecap:butt;stroke-linejoin:miter;stroke-opacity:1"
     id="text3370"
     transform="matrix(0.15346859,0,0,0.15764193,0.55487027,5.1597651)">
    <path
       d="m 8.5619985,178.10676 q 0.6296881,0.0157 1.092466,0.26162 3.7450625,2.01268 7.8509125,5.42637 0.60339,0.4839 1.101282,0.49628 0.776128,0.0193 2.330567,-0.03 1.55444,-0.0493 2.315923,-0.0303 0.26359,0.007 0.319252,0.12517 0.01392,0.0297 0.06339,0.3972 0.07475,0.52937 0.02231,2.63809 -0.05281,2.12337 -0.15524,2.70694 -0.06877,0.40857 -0.434871,0.39947 -0.776127,-0.0193 -2.354392,-0.19043 -1.592908,-0.1715 -2.383679,-0.19116 -0.468605,-0.0117 -1.019171,0.32632 -2.548176,1.70964 -7.7994206,4.87595 -0.579489,0.32261 -0.9455868,0.31351 -0.8786345,-0.0219 -2.6380889,0.0223 -1.7594543,0.0442 -2.6380888,0.0223 -0.483249,-0.012 -0.4759651,-0.30489 0.022216,-0.89328 0.1405961,-2.70731 0.11838,-1.81402 0.1409603,-2.72194 0.00838,-0.33681 0.2280351,-0.33135 0.7468394,0.0186 2.2533411,0.12931 1.492222,0.0957 2.2390613,0.11429 0.4393173,0.0109 2.2286363,-1.23403 1.402021,-0.99084 2.165249,-1.63124 -0.687975,-0.61788 -2.069025,-1.64863 -1.7259485,-1.30308 -2.0920462,-1.31219 -0.7321955,-0.0182 -2.2141439,0.0622 -1.4962282,0.0654 -2.2284236,0.0472 -0.3075221,-0.008 -0.3481761,-0.14054 0,0 0.0091,-0.36609 0.021852,-0.87864 -0.00766,-2.63773 -0.043796,-1.7741 -0.02158,-2.66738 0.00728,-0.29287 0.6369721,-0.27721 0.7761272,0.0193 2.3437539,0.029 1.5529828,0.009 2.3437539,0.029 z"
       style="font-style:normal;font-variant:normal;font-weight:bold;font-stretch:normal;font-size:30px;line-height:100%;font-family:'Berlin Sans FB Demi';-inkscape-font-specification:'Berlin Sans FB Demi, Bold';text-align:start;writing-mode:lr-tb;text-anchor:start"
       id="path3426"
       inkscape:connector-curvature="0" />
    <path
       d="m 17.225209,162.38158 q 3.337019,0.13733 5.331013,2.2719 1.994596,2.11994 1.857869,5.44233 -0.132511,3.21993 -2.267088,5.21392 -2.134577,1.99399 -5.354507,1.86148 -3.395564,-0.13974 -5.421239,-2.21697 -2.0403112,-2.07784 -1.9005724,-5.47341 0.1361249,-3.30774 2.2987694,-5.27126 2.148008,-1.96412 5.455755,-1.82799 z m -0.197562,4.80062 q -1.156248,-0.0476 -2.063925,0.63344 -0.922312,0.68043 -0.969294,1.82204 -0.04758,1.15625 0.829133,1.94003 0.81998,0.73747 1.990864,0.78565 1.18552,0.0488 2.063322,-0.61881 0.938154,-0.70909 0.985737,-1.86534 0.04698,-1.14161 -0.829735,-1.92539 -0.820582,-0.72283 -2.006102,-0.77162 z"
       style="font-style:normal;font-variant:normal;font-weight:bold;font-stretch:normal;font-size:30px;line-height:100%;font-family:'Berlin Sans FB Demi';-inkscape-font-specification:'Berlin Sans FB Demi, Bold';text-align:start;writing-mode:lr-tb;text-anchor:start"
       id="path3428"
       inkscape:connector-curvature="0" />
    <path
       d="m 12.211426,144.97056 q 1.081609,0.0717 3.238042,0.31748 2.156433,0.24576 3.238042,0.31748 1.052377,0.0698 3.161975,0.13628 2.109599,0.0665 3.147359,0.1353 0.394641,0.0262 0.472725,0.39836 0.109332,0.56511 -0.0099,2.36292 -0.105646,1.59318 -0.235021,2.21587 -0.06226,0.2748 -0.374053,0.32753 -0.441398,0.0148 -0.882796,0.0296 -0.677197,0.0285 -0.68592,0.16004 0.01357,-0.20463 0.896018,1.54216 0.88245,1.74678 0.791342,3.12072 -0.256845,3.87333 -3.797642,4.35788 -1.643737,0.21398 -4.727784,0.009 -3.332525,-0.22098 -5.22602,-0.88973 -0.588608,-0.20051 -0.559531,-0.639 0.04458,-0.67236 0.150308,-2.04532 0.105724,-1.37297 0.150309,-2.04532 0.03005,-0.45311 0.410071,-0.42791 0.102314,0.007 0.305004,0.0496 1.967468,0.43876 4.013755,0.57445 2.543243,0.16865 3.48935,0.0699 1.625243,-0.15648 1.734766,-1.80813 0.04265,-0.64312 -0.47796,-1.42635 -0.519637,-0.79785 -1.131585,-0.86779 -0.538866,-0.0651 -7.335463,-0.51579 -0.482339,-0.032 -0.565191,-0.11088 -0.140348,-0.0974 -0.111271,-0.53588 0.04749,-0.7162 0.157093,-2.14763 0.11057,-1.44605 0.158062,-2.16225 0.02908,-0.43849 0.253168,-0.49703 0.118869,-0.0215 0.352731,-0.006 z"
       style="font-style:normal;font-variant:normal;font-weight:bold;font-stretch:normal;font-size:30px;line-height:100%;font-family:'Berlin Sans FB Demi';-inkscape-font-specification:'Berlin Sans FB Demi, Bold';text-align:start;writing-mode:lr-tb;text-anchor:start"
       id="path3430"
       inkscape:connector-curvature="0" />
    <path
       d="m 17.573932,132.87238 q 0.568656,0.0548 0.508248,0.68177 -0.02669,0.27704 -0.107832,0.81372 -0.09432,0.5207 -0.119603,0.78316 -0.1166,1.21021 0.220359,1.68417 0.336959,0.47395 1.488852,0.58493 0.626979,0.0604 1.911505,0.16945 1.27135,0.0931 1.898329,0.15347 0.422847,0.0407 1.274159,0.0639 0.836732,0.0217 1.244998,0.0611 0.349942,0.0337 0.347325,0.5191 -0.0091,0.7055 -0.148185,2.14901 -0.133458,1.38519 -0.301019,2.20787 -0.104682,0.47555 -0.527529,0.43481 -1.166474,-0.11238 -3.483435,-0.35033 -2.331542,-0.23935 -3.498016,-0.35174 -3.426515,-0.33013 -5.703222,0.0833 -0.134038,0.0165 -0.221524,0.008 -0.218714,-0.0211 -0.270546,-0.24681 -0.01022,-0.81037 -0.0946,-2.37843 -0.230046,-2.34733 -0.223022,-2.42024 0.02529,-0.26246 0.950909,-0.24686 0.925622,0.0156 0.943885,-0.17395 -0.01967,0.20413 -0.643013,-1.26868 -0.637925,-1.47423 -0.512896,-2.77193 0.07867,-0.81653 0.428612,-0.78282 0.422847,0.0407 1.187206,0.20268 0.822684,0.16757 1.185802,0.21727 0.422847,0.0407 1.124136,0.0936 0.863084,0.0537 1.140121,0.0804 z"
       style="font-style:normal;font-variant:normal;font-weight:bold;font-stretch:normal;font-size:30px;line-height:100%;font-family:'Berlin Sans FB Demi';-inkscape-font-specification:'Berlin Sans FB Demi, Bold';text-align:start;writing-mode:lr-tb;text-anchor:start"
       id="path3432"
       inkscape:connector-curvature="0" />
    <path
       d="m 20.986384,102.68352 q 4.504084,0.77523 7.055656,4.17231 2.584942,3.46227 1.812194,7.95192 -0.767777,4.46077 -4.392872,6.86905 -3.542975,2.36296 -8.018186,1.5927 -4.489648,-0.77275 -7.053171,-4.18674 -2.625766,-3.48417 -1.8579881,-7.94494 0.7628085,-4.43191 4.4048241,-6.85214 3.588768,-2.36994 8.049543,-1.60216 z m -0.970581,5.46634 q -2.165424,-0.37271 -3.907331,0.68009 -1.824027,1.09812 -2.191765,3.23467 -0.350345,2.0355 1.051875,3.7335 1.35193,1.64475 3.416302,2.00007 2.208734,0.38016 3.902362,-0.65122 1.778234,-1.09113 2.153426,-3.27099 0.350345,-2.0355 -1.034954,-3.74546 -1.325543,-1.62534 -3.389915,-1.98066 z"
       style="font-style:normal;font-variant:normal;font-weight:bold;font-stretch:normal;font-size:30px;line-height:100%;font-family:'Berlin Sans FB Demi';-inkscape-font-specification:'Berlin Sans FB Demi, Bold';text-align:start;writing-mode:lr-tb;text-anchor:start"
       id="path3434"
       inkscape:connector-curvature="0" />
    <path
       d="m 25.154844,90.771499 q 0.554667,0.136805 0.40383,0.748361 -0.06665,0.270222 -0.224883,0.789429 -0.168949,0.501477 -0.23209,0.757477 -0.29115,1.180445 -0.02661,1.698316 0.264542,0.51787 1.388099,0.794989 0.611555,0.150837 1.866619,0.445305 1.24435,0.276737 1.855906,0.427574 0.412445,0.101727 1.251365,0.248293 0.824699,0.143058 1.222921,0.241277 0.341334,0.08419 0.268242,0.564045 -0.111487,0.696698 -0.458763,2.104699 -0.333245,1.351116 -0.618525,2.140736 -0.172647,0.4553 -0.585092,0.35357 -1.137778,-0.28063 -3.395605,-0.85259 -2.272049,-0.57548 -3.409827,-0.85611 -3.342224,-0.824338 -5.65484,-0.745974 -0.135015,-0.0031 -0.220349,-0.02417 -0.213333,-0.05262 -0.231827,-0.28349 0.107598,-0.803269 0.251873,-2.366951 0.113349,-2.355855 0.130888,-2.426966 0.06314,-0.256001 0.97668,-0.106118 0.91354,0.149882 0.959142,-0.03501 -0.04911,0.199111 -0.451913,-1.348631 -0.417026,-1.551249 -0.104829,-2.817028 0.196439,-0.796444 0.537772,-0.712256 0.412445,0.101727 1.145176,0.372976 0.78962,0.28528 1.141668,0.387198 0.412445,0.101727 1.09862,0.255881 0.846127,0.178518 1.116349,0.245167 z"
       style="font-style:normal;font-variant:normal;font-weight:bold;font-stretch:normal;font-size:30px;line-height:100%;font-family:'Berlin Sans FB Demi';-inkscape-font-specification:'Berlin Sans FB Demi, Bold';text-align:start;writing-mode:lr-tb;text-anchor:start"
       id="path3436"
       inkscape:connector-curvature="0" />
    <path
       d="m 35.36813,76.227017 q 3.961935,1.31608 5.131585,3.556873 1.192883,2.310253 -0.13705,6.313892 -0.387898,1.167728 -1.432823,3.058768 -1.32695,2.414777 -1.96642,2.202357 -0.264129,-0.08774 -2.526133,-1.50286 -0.356918,-0.226609 -0.28765,-0.435132 0.03699,-0.06489 0.106402,-0.134446 1.767661,-1.78988 2.372596,-3.61098 0.332483,-1.00091 0.159894,-2.15416 -0.200633,-1.394097 -1.104232,-1.694256 l -0.931402,-0.309394 q 0.863528,1.861266 0.124676,4.085511 -0.868151,2.613486 -3.303613,3.672165 -2.347484,1.026161 -4.988774,0.148774 -2.655192,-0.882004 -3.889587,-3.020821 -1.280815,-2.231414 -0.408046,-4.858802 0.697292,-2.09913 2.568082,-2.712527 0.379719,-0.120833 0.407426,-0.204242 0.04156,-0.125114 -0.458894,-0.291355 -1.112122,-0.369426 -1.029001,-0.619654 0.07389,-0.222424 1.035209,-2.326461 0.947423,-2.108654 1.002933,-2.182827 0.161912,-0.208619 0.439943,-0.116263 0.959205,0.31863 2.840625,1.02078 1.886038,0.688248 2.845243,1.006878 0.569962,0.18933 1.714505,0.554091 1.144543,0.36476 1.714506,0.554091 z m -5.44849,3.53079 q -1.014812,-0.337101 -1.977866,0.09933 -0.972338,0.41791 -1.309439,1.432722 -0.337101,1.014811 0.201209,1.949966 0.529027,0.916636 1.543838,1.253737 1.014812,0.337101 1.977866,-0.09933 0.967672,-0.450331 1.295538,-1.437339 0.337101,-1.014812 -0.191926,-1.931448 -0.524409,-0.930537 -1.53922,-1.267638 z"
       style="font-style:normal;font-variant:normal;font-weight:bold;font-stretch:normal;font-size:30px;line-height:100%;font-family:'Berlin Sans FB Demi';-inkscape-font-specification:'Berlin Sans FB Demi, Bold';text-align:start;writing-mode:lr-tb;text-anchor:start"
       id="path3438"
       inkscape:connector-curvature="0" />
    <path
       d="m 39.529279,58.602619 q 1.019422,0.482704 3.088208,1.316422 2.068786,0.833717 3.07497,1.310153 0.52957,0.250755 0.349876,0.732935 -0.658188,1.698088 -1.66121,3.816368 -0.119109,0.251546 -0.917628,-0.01311 -0.80549,-0.28416 -0.875149,-0.171276 0.0028,0.13099 0.09342,0.384596 0.79392,2.19118 -0.0085,3.885804 -1.222433,2.581655 -4.063695,3.31087 -2.664987,0.69923 -5.312838,-0.554547 -3.058267,-1.448113 -4.141391,-3.986932 -1.117975,-2.63636 0.298793,-5.628431 0.984215,-2.078563 3.011001,-2.593757 0.09127,-0.02161 0.110079,-0.06133 0.05642,-0.119154 -0.510107,-0.565692 -0.573496,-0.466046 -0.473194,-0.677874 0.231949,-0.489853 1.161937,-1.735088 0.885405,-1.185309 1.340316,-1.666832 0.173469,-0.160975 0.305862,-0.09829 0.05296,0.02508 0.259217,0.171365 2.195701,1.558324 4.87003,2.824639 z m -1.939146,4.300653 q -1.125337,-0.532856 -2.192015,-0.162725 -1.073649,0.350623 -1.612774,1.489199 -0.539124,1.138575 -0.143216,2.185044 0.395908,1.046469 1.534484,1.585594 1.072379,0.507779 2.191313,0.129977 1.118935,-0.377803 1.620445,-1.436943 0.532856,-1.125337 0.143217,-2.185045 -0.402879,-1.065977 -1.541454,-1.605101 z"
       style="font-style:normal;font-variant:normal;font-weight:bold;font-stretch:normal;font-size:30px;line-height:100%;font-family:'Berlin Sans FB Demi';-inkscape-font-specification:'Berlin Sans FB Demi, Bold';text-align:start;writing-mode:lr-tb;text-anchor:start"
       id="path3440"
       inkscape:connector-curvature="0" />
    <path
       d="m 55.337887,46.842623 q 0.327769,0.221346 0.146783,0.594047 -0.180986,0.3727 -1.148351,1.805171 -1.032948,1.529587 -1.351726,1.844586 -0.318777,0.315 -0.743663,0.02807 -0.57056,-0.385306 -1.699226,-1.200536 -1.128667,-0.815229 -1.711367,-1.208733 -0.449164,-0.303326 -1.351749,-0.877501 -0.914726,-0.582374 -1.36389,-0.8857 -1.663123,-1.123126 -2.638685,0.321484 -0.319722,0.473444 -0.333273,1.383434 0.0022,0.991341 0.45138,1.294667 l 6.555375,4.426922 q 0.400606,0.270534 0.195026,0.679654 -0.238372,0.457677 -1.123756,1.768752 -0.959167,1.420331 -1.318935,1.796028 -0.314836,0.335337 -0.654744,0.105793 -0.946887,-0.639444 -2.844604,-1.938671 -1.897716,-1.299226 -2.856743,-1.946868 -3.022756,-2.041303 -5.066298,-2.731976 -0.125653,-0.0495 -0.19849,-0.09869 -0.194234,-0.131168 -0.144101,-0.36245 0.431497,-0.82218 1.110194,-2.219806 0.927156,-2.184332 1.091116,-2.427123 0.09018,-0.133536 0.964857,0.351091 0.86254,0.476429 0.952718,0.342894 -0.09018,0.133535 0.03956,-1.864598 0.125792,-2.01847 0.855414,-3.098893 1.041147,-1.541727 2.466352,-2.081711 1.616441,-0.587598 3.10961,0.420756 l 3.872527,2.615164 q 0.789072,0.53287 2.375416,1.586471 1.574204,1.045403 2.363277,1.578273 z"
       style="font-style:normal;font-variant:normal;font-weight:bold;font-stretch:normal;font-size:30px;line-height:100%;font-family:'Berlin Sans FB Demi';-inkscape-font-specification:'Berlin Sans FB Demi, Bold';text-align:start;writing-mode:lr-tb;text-anchor:start"
       id="path3442"
       inkscape:connector-curvature="0" />
    <path
       d="m 47.995133,29.324081 q 1.914352,1.68279 0.01879,3.839186 -0.812381,0.92417 -1.828387,1.103748 -1.108369,0.195903 -2.010535,-0.597136 -0.858157,-0.754354 -0.808643,-1.92004 0.04516,-1.071991 0.818862,-1.952153 0.754354,-0.858157 1.822708,-1.030726 1.140045,-0.187562 1.9872,0.557121 z m 7.92305,7.47176 q 0.803148,0.705998 2.427454,2.075317 1.613305,1.359648 2.40545,2.055975 0.231043,0.203095 0.03327,0.516831 -0.262809,0.432096 -1.413683,1.741336 -1.160545,1.320243 -1.555378,1.636284 -0.256775,0.20336 -0.404149,0.171329 -0.06335,-0.01668 -0.349403,-0.268132 -0.75914,-0.667314 -2.248405,-2.034946 -1.500267,-1.377304 -2.270408,-2.054289 -3.124574,-2.746623 -5.18568,-4.129342 -0.195375,-0.132735 -0.250385,-0.181091 -0.220041,-0.193424 0.04108,-0.490479 0.270794,-0.308056 0.888065,-0.877144 0.626942,-0.58009 0.907407,-0.899149 0.280465,-0.319058 0.786385,-1.005532 0.50592,-0.686473 0.786385,-1.005531 0.232109,-0.264049 0.45215,-0.07062 0.04401,0.03869 0.189696,0.205757 1.932627,2.12793 4.760146,4.613431 z"
       style="font-style:normal;font-variant:normal;font-weight:bold;font-stretch:normal;font-size:30px;line-height:100%;font-family:'Berlin Sans FB Demi';-inkscape-font-specification:'Berlin Sans FB Demi, Bold';text-align:start;writing-mode:lr-tb;text-anchor:start"
       id="path3444"
       inkscape:connector-curvature="0" />
    <path
       d="m 61.116947,24.622235 q 0.09963,0.107389 0.107908,0.439388 -0.370426,0.203782 -0.671113,0.482736 -0.633592,0.587795 -0.804117,1.26551 -0.216586,0.800371 0.331359,1.391008 0.348692,0.375859 1.434355,0.447663 1.633864,0.102724 2.106116,0.224084 1.304841,0.308058 2.17159,1.242337 0.508094,0.547681 0.861187,1.359048 0.380652,0.905687 0.293709,1.565806 -0.157066,1.42452 -0.781856,2.883329 -0.690775,1.559989 -1.657271,2.456625 -0.214777,0.199253 -2.04246,-0.263158 -1.826906,-0.483113 -2.06601,-0.740845 -0.08966,-0.09665 0.0085,-0.227716 0.622205,-0.836989 1.255148,-1.683941 0.666065,-1.177399 0.02846,-1.864685 -0.438356,-0.472509 -1.56387,-0.587267 -1.98346,-0.178024 -2.086191,-0.202607 -1.26499,-0.265102 -2.062001,-1.12421 -1.494394,-1.610826 -0.908166,-4.252724 0.533958,-2.35363 2.198479,-3.897838 0.171821,-0.159402 1.924332,0.372748 1.742549,0.52141 1.921876,0.714709 z"
       style="font-style:normal;font-variant:normal;font-weight:bold;font-stretch:normal;font-size:30px;line-height:100%;font-family:'Berlin Sans FB Demi';-inkscape-font-specification:'Berlin Sans FB Demi, Bold';text-align:start;writing-mode:lr-tb;text-anchor:start"
       id="path3446"
       inkscape:connector-curvature="0" />
    <path
       d="m 78.774451,17.496089 q 0.632444,0.933938 1.990067,2.703633 1.357622,1.769696 1.981853,2.691505 0.328542,0.485162 -0.07133,0.809024 -1.430082,1.127643 -3.370732,2.441813 -0.230452,0.156057 -0.783528,-0.477804 -0.549161,-0.654205 -0.666536,-0.592412 -0.06418,0.114225 -0.11508,0.378679 -0.430323,2.290503 -1.982843,3.341839 -2.365167,1.601644 -5.182575,0.785104 -2.650369,-0.752744 -4.293081,-3.178557 -1.897333,-2.801813 -1.539312,-5.538706 0.377598,-2.838606 3.118766,-4.69487 1.904263,-1.289529 3.911499,-0.702766 0.08958,0.02779 0.125972,0.0031 0.109161,-0.07392 -0.15167,-0.746466 -0.256916,-0.692887 -0.06285,-0.824304 0.448776,-0.303902 1.882683,-0.903402 1.365048,-0.570561 2.001588,-0.753937 0.231217,-0.05043 0.313353,0.07086 0.03285,0.04852 0.136097,0.279351 1.098525,2.458194 2.757664,4.908264 z m -3.856277,2.717541 q -0.698153,-1.03097 -1.804868,-1.254536 -1.102799,-0.243909 -2.145899,0.462457 -1.043099,0.706366 -1.234194,1.808783 -0.191094,1.102417 0.515272,2.145517 0.665298,0.982454 1.820912,1.22598 1.155614,0.243526 2.125939,-0.413559 1.030971,-0.698152 1.234194,-1.808783 0.19501,-1.12276 -0.511356,-2.165859 z"
       style="font-style:normal;font-variant:normal;font-weight:bold;font-stretch:normal;font-size:30px;line-height:100%;font-family:'Berlin Sans FB Demi';-inkscape-font-specification:'Berlin Sans FB Demi, Bold';text-align:start;writing-mode:lr-tb;text-anchor:start"
       id="path3448"
       inkscape:connector-curvature="0" />
    <path
       d="m 92.514778,14.185418 q 0.190162,0.396178 0.471177,1.252451 0.29422,0.849935 0.478043,1.232907 0.177485,0.369767 0.148959,0.513447 -0.02853,0.14368 -0.290006,0.512915 -1.253519,1.755319 -3.326854,2.750499 -3.816522,1.831891 -5.21738,-1.086625 -0.418356,-0.871593 -1.189038,-2.646473 -0.77702,-1.788086 -1.195376,-2.659679 -0.278904,-0.581062 -0.952408,-0.257787 -0.05282,0.02536 -0.171677,0.0824 -0.112515,0.07025 -0.165339,0.09561 -0.501827,0.240871 -0.672972,-0.115689 -0.10142,-0.211296 -0.284186,-0.65977 -0.16956,-0.454812 -0.270979,-0.666108 Q 79.743628,12.256194 79.431445,11.707354 79.132468,11.152176 78.999355,10.87485 78.87258,10.610731 79.705084,10.178641 80.17416,9.9372409 80.093342,9.6673116 79.931706,9.1274529 79.385519,8.0572419 78.514999,6.3790285 78.553032,6.4582642 77.817739,4.9263733 78.108271,4.7869213 78.464831,4.6157757 79.201194,4.4573109 80.036337,4.267681 80.339545,4.154641 81.05742,3.9238077 82.493698,3.4293904 q 0.342827,-0.1320562 0.437908,0.066033 0.253549,0.5282383 0.674544,1.6422918 0.434201,1.1077148 0.694088,1.649159 0.310598,0.6470919 0.693571,0.4632688 0.462208,-0.2218554 1.380815,-0.7115227 0.918607,-0.4896674 1.394021,-0.7178615 0.290531,-0.139452 0.385612,0.058637 0.145791,0.303737 0.371342,0.9429046 0.225552,0.6391677 0.371343,0.9429046 0.152129,0.316943 0.456916,0.9180783 0.304788,0.6011352 0.456917,0.9180782 0.133113,0.277325 -0.249859,0.4611485 -0.26412,0.126774 -0.891138,0.411489 -0.633358,0.271508 -0.897477,0.398282 l -0.990447,0.475405 q -0.198089,0.09508 0.08082,0.676143 0.152129,0.316943 0.45005,0.937623 0.317464,0.627547 0.463255,0.931284 0.532453,1.1093 0.986205,1.411455 0.629126,0.39671 1.672397,-0.104049 0.330149,-0.158468 0.867897,-0.595315 0.544615,-0.456391 0.795528,-0.576827 0.277325,-0.133114 0.416777,0.157418 z"
       style="font-style:normal;font-variant:normal;font-weight:bold;font-stretch:normal;font-size:30px;line-height:100%;font-family:'Berlin Sans FB Demi';-inkscape-font-specification:'Berlin Sans FB Demi, Bold';text-align:start;writing-mode:lr-tb;text-anchor:start"
       id="path3450"
       inkscape:connector-curvature="0" />
    <path
       d="M 95.142594,-0.9723665 Q 96.034098,1.4154664 93.344355,2.419689 92.191608,2.8500701 91.211396,2.5280475 90.142073,2.17675 89.721939,1.0514495 q -0.39964,-1.07040785 0.195018,-2.074229 0.546536,-0.9233105 1.64439,-1.3331973 1.070408,-0.3996396 2.093438,-0.046695 1.093293,0.3736202 1.487809,1.4303049 z m 3.450021,10.3295341 q 0.374022,1.0017924 1.158111,2.9762824 0.778964,1.960766 1.147864,2.948835 0.10759,0.288187 -0.21499,0.471169 -0.43585,0.256541 -2.068905,0.866248 -1.646781,0.61483 -2.144111,0.706693 -0.322404,0.05783 -0.437132,-0.04007 -0.04794,-0.04464 -0.181154,-0.401448 -0.353527,-0.946899 -1.019412,-2.856068 -0.671009,-1.922893 -1.02966,-2.883515 Q 92.348128,7.2479163 91.185456,5.0551413 91.076032,4.8458176 91.050414,4.7772017 90.947942,4.5027382 91.318468,4.3644014 91.702717,4.220941 92.51568,4.0112358 93.342366,3.7964069 93.740338,3.647823 94.13831,3.499239 94.908636,3.1334552 q 0.770327,-0.3657838 1.168299,-0.5143678 0.329356,-0.122966 0.431828,0.1514975 0.02049,0.054893 0.0699,0.2709876 0.69719,2.7887385 2.013951,6.3155951 z"
       style="font-style:normal;font-variant:normal;font-weight:bold;font-stretch:normal;font-size:30px;line-height:100%;font-family:'Berlin Sans FB Demi';-inkscape-font-specification:'Berlin Sans FB Demi, Bold';text-align:start;writing-mode:lr-tb;text-anchor:start"
       id="path3452"
       inkscape:connector-curvature="0" />
    <path
       d="m 115.36658,4.0298244 q 0.85914,3.2274485 -0.58754,5.7650721 -1.43253,2.5338555 -4.64582,3.3892335 -3.11421,0.829001 -5.65183,-0.617684 -2.53762,-1.446684 -3.36662,-4.5608888 -0.87422,-3.2840704 0.5083,-5.8349321 1.37876,-2.56501726 4.66283,-3.4392362 3.19914,-0.8516099 5.71599,0.63092174 2.51308,1.46837618 3.36469,4.66751376 z m -4.643,1.2359648 q -0.29768,-1.1182826 -1.21739,-1.7829701 -0.92348,-0.678843 -2.02761,-0.3849245 -1.11828,0.2976866 -1.60658,1.3675036 -0.46091,1.0018905 -0.15946,2.1343286 0.30523,1.1465935 1.20324,1.7867382 0.95556,0.6854621 2.07384,0.3877754 1.10413,-0.2939184 1.59243,-1.3637354 0.44676,-0.9981223 0.14153,-2.1447158 z"
       style="font-style:normal;font-variant:normal;font-weight:bold;font-stretch:normal;font-size:30px;line-height:100%;font-family:'Berlin Sans FB Demi';-inkscape-font-specification:'Berlin Sans FB Demi, Bold';text-align:start;writing-mode:lr-tb;text-anchor:start"
       id="path3454"
       inkscape:connector-curvature="0" />
    <path
       d="m 133.33207,8.1044365 q 0.0587,0.3911305 -0.33825,0.5099293 -0.39692,0.1187988 -2.10631,0.3752528 -1.82527,0.2738407 -2.2729,0.252123 -0.44763,-0.021718 -0.5237,-0.5287387 -0.10214,-0.6808568 -0.26515,-2.0635768 -0.16301,-1.3827199 -0.26733,-2.078063 -0.0804,-0.5359937 -0.26804,-1.589148 -0.1898,-1.0676406 -0.27021,-1.6036342 -0.29775,-1.98462516 -2.02162,-1.7259978 -0.56497,0.0847602 -1.24437,0.69030857 -0.72864,0.67218693 -0.64823,1.20818063 l 1.1736,7.82261 q 0.0717,0.4780484 -0.36866,0.6033672 -0.49832,0.1340125 -2.06285,0.3687325 -1.6949,0.254281 -2.21496,0.24343 -0.45994,-0.0051 -0.52079,-0.410675 -0.16952,-1.1299325 -0.49625,-3.4064573 -0.32673,-2.2765248 -0.49842,-3.4209437 -0.54116,-3.60709236 -1.41474,-5.5793888 -0.0485,-0.1260302 -0.0616,-0.2129481 -0.0348,-0.231781 0.16948,-0.351299 0.89743,-0.2383246 2.38589,-0.6838199 2.23595,-0.7946367 2.52568,-0.8381035 0.15935,-0.023907 0.39405,0.9481227 0.23253,0.957543 0.39188,0.9336363 -0.15935,0.023907 1.40008,-1.232103 1.57174,-1.2726694 2.86102,-1.4660966 1.83976,-0.2760141 3.2015,0.408431 1.52616,0.7930885 1.79348,2.5749052 l 0.69329,4.6211344 q 0.14127,0.9416105 0.43829,2.8226581 0.29485,1.8665613 0.43612,2.8081717 z"
       style="font-style:normal;font-variant:normal;font-weight:bold;font-stretch:normal;font-size:30px;line-height:100%;font-family:'Berlin Sans FB Demi';-inkscape-font-specification:'Berlin Sans FB Demi, Bold';text-align:start;writing-mode:lr-tb;text-anchor:start"
       id="path3456"
       inkscape:connector-curvature="0" />
    <path
       d="m 138.998,-9.797842 q 0.19695,2.4236517 -0.63752,5.3573221 -0.0808,0.2711106 -0.31208,0.3192941 -0.34566,0.086876 -0.94427,0.1355194 -0.42341,0.034407 -0.85157,0.010412 -0.63493,-0.036585 -1.3449,-2.6243026 -0.56386,-2.0558109 -0.66115,-3.2530364 l -0.14593,-1.7958386 q -0.0273,-0.335807 0.14317,-0.408445 0.24108,-0.107772 2.08072,-0.257262 1.98565,-0.161355 2.19717,-0.09036 0.2723,0.09545 0.47636,2.6067001 z"
       style="font-style:normal;font-variant:normal;font-weight:bold;font-stretch:normal;font-size:30px;line-height:100%;font-family:'Berlin Sans FB Demi';-inkscape-font-specification:'Berlin Sans FB Demi, Bold';text-align:start;writing-mode:lr-tb;text-anchor:start"
       id="path3458"
       inkscape:connector-curvature="0" />
    <path
       d="m 151.32319,-4.0775468 q 4.1e-4,0.1464838 -0.21861,0.3961238 -0.41045,-0.1013858 -0.8206,-0.100233 -0.86426,0.00243 -1.44912,0.3849339 -0.70189,0.4414277 -0.69962,1.2470885 10e-4,0.5126933 0.75073,1.30160605 1.13126,1.1833485 1.39608,1.59276203 0.7502,1.11117712 0.75378,2.38558612 0.002,0.7470673 -0.28852,1.5828484 -0.33432,0.9237949 -0.84582,1.3500389 -1.08134,0.9405431 -2.52972,1.5891478 -1.56548,0.6782309 -2.88384,0.6819364 -0.29297,8.234e-4 -1.3228,-1.5783195 -1.01523,-1.5938325 -1.01621,-1.9453936 -3.7e-4,-0.1318355 0.16068,-0.1615851 1.02485,-0.193311 2.06435,-0.3866631 1.2879,-0.4137778 1.28527,-1.3512741 -0.002,-0.6445287 -0.75127,-1.492035 -1.33716,-1.47573964 -1.396,-1.56346523 -0.75003,-1.05258357 -0.75333,-2.22445397 -0.006,-2.1972569 2.21606,-3.7415949 1.98835,-1.3678987 4.25885,-1.3742804 0.23437,-6.588e-4 1.16167,1.5787724 0.92725,1.5647827 0.92799,1.8284536 z"
       style="font-style:normal;font-variant:normal;font-weight:bold;font-stretch:normal;font-size:30px;line-height:100%;font-family:'Berlin Sans FB Demi';-inkscape-font-specification:'Berlin Sans FB Demi, Bold';text-align:start;writing-mode:lr-tb;text-anchor:start"
       id="path3460"
       inkscape:connector-curvature="0" />
    <path
       d="m 174.09903,12.04449 q -1.22938,-0.275034 -3.1893,-0.773549 -2.56032,-0.632834 -3.18611,-0.787844 l -4.26143,-1.0134047 q -0.64648,-0.1296183 -1.83128,-0.469732 -0.39856,-0.1642195 -0.31541,-0.5358914 0.34859,-1.5581626 1.08546,-4.6505987 0.75436,-3.10353301 1.10295,-4.66169568 0.37097,-1.65822812 1.00966,-4.98277592 0.64189,-3.3388429 1.01287,-4.9970706 0.0704,-0.314492 0.49921,-0.21855 0.42885,0.09594 1.26266,0.327514 0.84811,0.23477 1.26267,0.327514 0.47174,0.105537 1.41051,0.270526 0.94197,0.1506949 1.41371,0.2562313 0.21443,0.047971 0.13937,0.3163794 l -0.0559,0.1826379 q -0.77278,2.6490963 -2.19288,7.9903667 l -0.85859,3.7707005 q -0.40935,1.829769 -0.58374,2.6763762 -0.0241,0.1747389 -0.0482,0.3494778 -0.0241,0.174739 0.16646,0.2623972 0.0143,0.0032 0.37167,0.08315 1.28656,0.2878268 3.87416,0.7316266 2.60509,0.4327028 3.89165,0.7205296 0.38596,0.086348 0.31241,0.4151346 -0.54687,2.4444572 -1.30081,4.1370942 -0.15463,0.355681 -0.39934,0.375987 -0.0779,0.0126 -0.59249,-0.102531 z"
       style="font-style:normal;font-variant:normal;font-weight:bold;font-stretch:normal;font-size:30px;line-height:100%;font-family:'Berlin Sans FB Demi';-inkscape-font-specification:'Berlin Sans FB Demi, Bold';text-align:start;writing-mode:lr-tb;text-anchor:start"
       id="path3462"
       inkscape:connector-curvature="0" />
    <path
       d="m 192.52247,10.223409 q -1.04905,3.170812 -3.64939,4.501463 -2.58644,1.335252 -5.74335,0.290803 -3.05955,-1.012241 -4.3902,-3.612587 -1.33065,-2.6003454 -0.31841,-5.6599011 1.06745,-3.2264406 3.62137,-4.6033098 2.55852,-1.3907763 5.78496,-0.323322 3.143,1.0398477 4.43663,3.6588053 1.29824,2.6050505 0.25839,5.7480486 z m -4.56152,-1.5091594 q 0.36349,-1.0986587 -0.0419,-2.1585367 -0.40078,-1.073785 -1.48553,-1.4326705 -1.09866,-0.3634866 -2.09319,0.2640959 -0.9344,0.5857575 -1.30249,1.6983232 -0.37269,1.1264728 0.028,2.1539356 0.42399,1.0968939 1.52265,1.4603809 1.08475,0.358886 2.07928,-0.268697 0.92049,-0.5903586 1.29318,-1.7168314 z"
       style="font-style:normal;font-variant:normal;font-weight:bold;font-stretch:normal;font-size:30px;line-height:100%;font-family:'Berlin Sans FB Demi';-inkscape-font-specification:'Berlin Sans FB Demi, Bold';text-align:start;writing-mode:lr-tb;text-anchor:start"
       id="path3464"
       inkscape:connector-curvature="0" />
    <path
       d="m 206.869,19.732461 q -1.57993,3.864303 -3.89441,4.880382 -2.38534,1.034582 -6.29032,-0.561972 -1.13895,-0.465662 -2.95533,-1.635574 -2.31992,-1.486569 -2.06492,-2.110281 0.10533,-0.25762 1.66958,-2.419181 0.25014,-0.340846 0.45352,-0.257692 0.0623,0.04128 0.12697,0.115215 1.66677,1.884194 3.44299,2.610405 0.97625,0.399138 2.1385,0.304611 1.40445,-0.106287 1.76478,-0.987619 l 0.37142,-0.90845 q -1.9152,0.736214 -4.08463,-0.150761 -2.54908,-1.042195 -3.44133,-3.543429 -0.86573,-2.411265 0.18755,-4.987466 1.05883,-2.5897612 3.27592,-3.6773076 2.31261,-1.1276231 4.87525,-0.079884 2.04741,0.8370823 2.53341,2.7449369 0.095,0.3869946 0.17634,0.4202561 0.12203,0.049892 0.3216,-0.4382301 0.44349,-1.0847166 0.68755,-0.9849319 0.21694,0.088697 2.25146,1.1895436 2.04006,1.087287 2.11032,1.147666 0.19725,0.175595 0.0864,0.446774 -0.3825,0.935568 -1.20977,2.765427 -0.81371,1.835403 -1.19622,2.770971 -0.22728,0.555917 -0.6683,1.673295 -0.44101,1.117379 -0.6683,1.673296 z m -3.15583,-5.673914 q 0.40469,-0.989804 0.0341,-1.980064 -0.35148,-0.998277 -1.34128,-1.402959 -0.98981,-0.404682 -1.95909,0.06943 -0.95019,0.466091 -1.35487,1.455895 -0.40468,0.989804 -0.0341,1.980064 0.38413,0.995805 1.34682,1.3894 0.9898,0.404682 1.93999,-0.06141 0.96374,-0.460548 1.36842,-1.450352 z"
       style="font-style:normal;font-variant:normal;font-weight:bold;font-stretch:normal;font-size:30px;line-height:100%;font-family:'Berlin Sans FB Demi';-inkscape-font-specification:'Berlin Sans FB Demi, Bold';text-align:start;writing-mode:lr-tb;text-anchor:start"
       id="path3466"
       inkscape:connector-curvature="0" />
    <path
       d="m 223.53777,23.76145 q -1.41658,3.024544 -4.15601,4.038423 -2.72617,1.020092 -5.73744,-0.390272 -2.91842,-1.366873 -3.9323,-4.106303 -1.01388,-2.73943 0.35299,-5.65785 1.44143,-3.077606 4.14023,-4.142868 2.705,-1.078528 5.78261,0.362901 2.99801,1.404151 3.97293,4.157686 0.98114,2.74027 -0.42301,5.738283 z m -4.3511,-2.037883 q 0.49083,-1.047978 0.2136,-2.14835 -0.27101,-1.113638 -1.30573,-1.598257 -1.04797,-0.490831 -2.10973,0.01477 -0.9971,0.471175 -1.49414,1.532419 -0.50326,1.074509 -0.22687,2.142137 0.29133,1.139329 1.33931,1.630161 1.03471,0.484618 2.09646,-0.02098 0.98384,-0.477388 1.4871,-1.551897 z"
       style="font-style:normal;font-variant:normal;font-weight:bold;font-stretch:normal;font-size:30px;line-height:100%;font-family:'Berlin Sans FB Demi';-inkscape-font-specification:'Berlin Sans FB Demi, Bold';text-align:start;writing-mode:lr-tb;text-anchor:start"
       id="path3468"
       inkscape:connector-curvature="0" />
  </g>
</svg>
