<?xml version="1.0" encoding="UTF-8" standalone="no"?>
<!-- Created with Inkscape (http://www.inkscape.org/) -->

<svg
   xmlns:osb="http://www.openswatchbook.org/uri/2009/osb"
   xmlns:dc="http://purl.org/dc/elements/1.1/"
   xmlns:cc="http://creativecommons.org/ns#"
   xmlns:rdf="http://www.w3.org/1999/02/22-rdf-syntax-ns#"
   xmlns:svg="http://www.w3.org/2000/svg"
   xmlns="http://www.w3.org/2000/svg"
   xmlns:xlink="http://www.w3.org/1999/xlink"
   xmlns:sodipodi="http://sodipodi.sourceforge.net/DTD/sodipodi-0.dtd"
   xmlns:inkscape="http://www.inkscape.org/namespaces/inkscape"
   width="100%"
   height="100%"
   viewBox="0 0 124.71151 148.45607"
   id="svg2"
   version="1.1"
   inkscape:version="0.48.4 r9939"
   sodipodi:docname="logo30x35.svg">
  <defs
     id="defs4">
    <inkscape:perspective
       sodipodi:type="inkscape:persp3d"
       inkscape:vp_x="0 : 526.18109 : 1"
       inkscape:vp_y="0 : 1000 : 0"
       inkscape:vp_z="744.09448 : 526.18109 : 1"
       inkscape:persp3d-origin="372.04724 : 350.78739 : 1"
       id="perspective5528" />
    <linearGradient
       inkscape:collect="always"
       id="linearGradient5443">
      <stop
         style="stop-color:#000000;stop-opacity:1;"
         offset="0"
         id="stop5445" />
      <stop
         style="stop-color:#000000;stop-opacity:0;"
         offset="1"
         id="stop5447" />
    </linearGradient>
    <linearGradient
       id="linearGradient5207"
       osb:paint="solid">
      <stop
         style="stop-color:#000000;stop-opacity:0;"
         offset="0"
         id="stop5209" />
    </linearGradient>
    <linearGradient
       id="linearGradient5199"
       osb:paint="solid">
      <stop
         style="stop-color:#000000;stop-opacity:1;"
         offset="0"
         id="stop5201" />
    </linearGradient>
    <radialGradient
       inkscape:collect="always"
       xlink:href="#linearGradient5443"
       id="radialGradient5449"
       cx="337.39096"
       cy="418.99655"
       fx="337.39096"
       fy="418.99655"
       r="209.05081"
       gradientTransform="matrix(1,0,0,0.9661754,0,14.172391)"
       gradientUnits="userSpaceOnUse" />
    <radialGradient
       inkscape:collect="always"
       xlink:href="#linearGradient5443"
       id="radialGradient5457"
       gradientUnits="userSpaceOnUse"
       gradientTransform="matrix(1,0,0,0.9661754,0,14.172391)"
       cx="337.39096"
       cy="418.99655"
       fx="337.39096"
       fy="418.99655"
       r="209.05081" />
    <radialGradient
       inkscape:collect="always"
       xlink:href="#linearGradient5443"
       id="radialGradient5474"
       gradientUnits="userSpaceOnUse"
       gradientTransform="matrix(1,0,0,0.9661754,0,14.172391)"
       cx="337.39096"
       cy="418.99655"
       fx="337.39096"
       fy="418.99655"
       r="209.05081" />
  </defs>
  <sodipodi:namedview
     id="base"
     pagecolor="#ffffff"
     bordercolor="#666666"
     borderopacity="1.0"
     inkscape:pageopacity="0.0"
     inkscape:pageshadow="2"
     inkscape:zoom="0.53118705"
     inkscape:cx="253.38586"
     inkscape:cy="66.036488"
     inkscape:document-units="px"
     inkscape:current-layer="layer1"
     showgrid="false"
     inkscape:window-width="1295"
     inkscape:window-height="746"
     inkscape:window-x="-8"
     inkscape:window-y="-8"
     inkscape:window-maximized="1"
     fit-margin-top="0"
     fit-margin-left="0"
     fit-margin-right="0"
     fit-margin-bottom="0" />
  <metadata
     id="metadata7">
    <rdf:RDF>
      <cc:Work
         rdf:about="">
        <dc:format>image/svg+xml</dc:format>
        <dc:type
           rdf:resource="http://purl.org/dc/dcmitype/StillImage" />
        <dc:title></dc:title>
      </cc:Work>
    </rdf:RDF>
  </metadata>
  <g
     inkscape:label="Ebene 1"
     inkscape:groupmode="layer"
     id="layer1"
     transform="translate(-105.44064,-458.03551)">
    <g
       id="g5570"
       transform="matrix(0.27041423,0,0,0.26560743,82.38767,440.27113)">
      <path
         id="path5452"
         d="M 324.4375,222.46875 C 217.77989,228.92005 133.34375,314.41212 133.34375,419 c 0,98.80882 75.36019,180.63265 173.625,194.8125 -3.34062,-1.65676 -6.63298,-3.39215 -9.875,-5.1875 -3.29068,-1.8223 -6.53463,-3.69571 -9.71875,-5.65625 -3.18412,-1.96054 -6.30245,-3.99953 -9.375,-6.09375 -3.07255,-2.09422 -6.10654,-4.24543 -9.0625,-6.46875 -2.95596,-2.22332 -5.85314,-4.52714 -8.6875,-6.875 -2.83436,-2.34786 -5.60475,-4.75093 -8.3125,-7.21875 -2.70775,-2.46782 -5.33013,-4.97928 -7.90625,-7.5625 -2.57612,-2.58322 -5.09177,-5.24346 -7.53125,-7.9375 -2.43948,-2.69404 -4.82718,-5.4497 -7.125,-8.25 -2.29782,-2.8003 -4.5051,-5.62926 -6.65625,-8.53125 -2.15115,-2.90199 -4.21928,-5.8759 -6.21875,-8.875 -1.99947,-2.9991 -3.93848,-6.03335 -5.78125,-9.125 -1.84277,-3.09165 -3.6002,-6.22663 -5.28125,-9.40625 -1.68105,-3.17962 -3.26692,-6.39322 -4.78125,-9.65625 -1.51433,-3.26303 -2.96992,-6.56438 -4.3125,-9.90625 -1.34258,-3.34187 -2.58417,-6.74012 -3.75,-10.15625 -1.16583,-3.41613 -2.23469,-6.85792 -3.21875,-10.34375 -0.98406,-3.48583 -1.89022,-7.01154 -2.6875,-10.5625 -0.79728,-3.55096 -1.48827,-7.13848 -2.09375,-10.75 -0.60548,-3.61152 -1.12258,-7.23875 -1.53125,-10.90625 -0.40867,-3.6675 -0.73066,-7.37483 -0.9375,-11.09375 -0.20684,-3.71892 -0.3125,-7.45298 -0.3125,-11.21875 0,-3.76577 0.10566,-7.49983 0.3125,-11.21875 0.20684,-3.71892 0.52883,-7.42625 0.9375,-11.09375 0.40867,-3.6675 0.92577,-7.29473 1.53125,-10.90625 0.60548,-3.61152 1.29647,-7.19904 2.09375,-10.75 0.79728,-3.55096 1.70344,-7.07667 2.6875,-10.5625 0.98406,-3.48583 2.05292,-6.92762 3.21875,-10.34375 1.16583,-3.41613 2.40742,-6.81438 3.75,-10.15625 1.34258,-3.34187 2.79817,-6.64322 4.3125,-9.90625 1.51433,-3.26303 3.1002,-6.47663 4.78125,-9.65625 1.68105,-3.17962 3.43848,-6.3146 5.28125,-9.40625 1.84277,-3.09165 3.78178,-6.15715 5.78125,-9.15625 1.99947,-2.9991 4.0676,-5.94176 6.21875,-8.84375 2.15115,-2.90199 4.35843,-5.7622 6.65625,-8.5625 2.29782,-2.8003 4.68552,-5.52471 7.125,-8.21875 2.43948,-2.69404 4.95513,-5.35428 7.53125,-7.9375 2.57612,-2.58322 5.1985,-5.09468 7.90625,-7.5625 2.70775,-2.46782 5.47814,-4.87089 8.3125,-7.21875 2.83436,-2.34786 5.73154,-4.65168 8.6875,-6.875 2.95596,-2.22332 5.98995,-4.37453 9.0625,-6.46875 3.07255,-2.09422 6.19088,-4.13321 9.375,-6.09375 3.18412,-1.96054 6.42807,-3.83395 9.71875,-5.65625 3.29068,-1.8223 6.63903,-3.60177 10.03125,-5.28125 3.39222,-1.67948 6.82375,-3.2804 10.3125,-4.8125 2.30341,-1.01155 4.65632,-1.92935 7,-2.875 z"
         style="fill:url(#radialGradient5449);fill-opacity:1;stroke:#000000;stroke-width:10;stroke-miterlimit:4;stroke-opacity:1;stroke-dasharray:none"
         inkscape:connector-curvature="0" />
      <path
         id="path5460"
         d="m 333.3125,615.8125 c 1.37049,0.0256 2.71723,0.15625 4.09375,0.15625 112.69415,0 204.03125,-88.17984 204.03125,-196.96875 0,-108.78891 -91.3371,-196.96875 -204.03125,-196.96875 -2.12879,0 -4.22756,0.14481 -6.34375,0.21875 4.28186,3.38942 8.47442,7.03059 12.5,10.96875 4.13802,4.04816 8.12724,8.378 11.96875,12.96875 3.84151,4.59075 7.54357,9.43565 11.0625,14.53125 3.51893,5.0956 6.86096,10.4373 10.03125,16 3.17029,5.5627 6.14191,11.35169 8.9375,17.34375 2.79559,5.99206 5.41768,12.17882 7.8125,18.5625 2.39482,6.38368 4.56326,12.94995 6.53125,19.6875 1.96799,6.73755 3.73491,13.66507 5.25,20.71875 1.51509,7.05368 2.77638,14.23043 3.8125,21.5625 1.03612,7.33207 1.84391,14.80228 2.375,22.375 0.53109,7.57272 0.8125,15.25563 0.8125,23.03125 0,7.77562 -0.28141,15.45853 -0.8125,23.03125 -0.53109,7.57272 -1.33888,15.04293 -2.375,22.375 -1.03612,7.33207 -2.29741,14.54007 -3.8125,21.59375 -1.51509,7.05368 -3.28201,13.94995 -5.25,20.6875 -1.96799,6.73755 -4.13643,13.30382 -6.53125,19.6875 -2.39482,6.38368 -5.01691,12.60169 -7.8125,18.59375 -2.79559,5.99206 -5.76721,11.7498 -8.9375,17.3125 -3.17029,5.5627 -6.51232,10.9044 -10.03125,16 -3.51893,5.0956 -7.22099,9.97175 -11.0625,14.5625 -3.84151,4.59075 -7.83073,8.92059 -11.96875,12.96875 -3.30187,3.23017 -6.77426,6.1369 -10.25,9 z"
         style="fill:url(#radialGradient5457);fill-opacity:1;stroke:#000000;stroke-width:10;stroke-miterlimit:4;stroke-opacity:1;stroke-dasharray:none"
         inkscape:connector-curvature="0" />
      <path
         id="path5401"
         d="m 331.0625,222.25 c -2.20991,0.0772 -4.43651,0.0864 -6.625,0.21875 -2.34368,0.94565 -4.69659,1.86345 -7,2.875 -3.48875,1.5321 -6.92028,3.13302 -10.3125,4.8125 -3.39222,1.67948 -6.74057,3.45895 -10.03125,5.28125 -3.29068,1.8223 -6.53463,3.69571 -9.71875,5.65625 -3.18412,1.96054 -6.30245,3.99953 -9.375,6.09375 -3.07255,2.09422 -6.10654,4.24543 -9.0625,6.46875 -2.95596,2.22332 -5.85314,4.52714 -8.6875,6.875 -2.83436,2.34786 -5.60475,4.75093 -8.3125,7.21875 -2.70775,2.46782 -5.33013,4.97928 -7.90625,7.5625 -2.57612,2.58322 -5.09177,5.24346 -7.53125,7.9375 -2.43948,2.69404 -4.82718,5.41845 -7.125,8.21875 -2.29782,2.8003 -4.5051,5.66051 -6.65625,8.5625 -2.15115,2.90199 -4.21928,5.84465 -6.21875,8.84375 -1.99947,2.9991 -3.93848,6.0646 -5.78125,9.15625 -1.84277,3.09165 -3.6002,6.22663 -5.28125,9.40625 -1.68105,3.17962 -3.26692,6.39322 -4.78125,9.65625 -1.51433,3.26303 -2.96992,6.56438 -4.3125,9.90625 -1.34258,3.34187 -2.58417,6.74012 -3.75,10.15625 -1.16583,3.41613 -2.23469,6.85792 -3.21875,10.34375 -0.98406,3.48583 -1.89022,7.01154 -2.6875,10.5625 -0.79728,3.55096 -1.48827,7.13848 -2.09375,10.75 -0.60548,3.61152 -1.12258,7.23875 -1.53125,10.90625 -0.40867,3.6675 -0.73066,7.37483 -0.9375,11.09375 -0.20684,3.71892 -0.3125,7.45298 -0.3125,11.21875 0,3.76577 0.10566,7.49983 0.3125,11.21875 0.20684,3.71892 0.52883,7.42625 0.9375,11.09375 0.40867,3.6675 0.92577,7.29473 1.53125,10.90625 0.60548,3.61152 1.29647,7.19904 2.09375,10.75 0.79728,3.55096 1.70344,7.07667 2.6875,10.5625 0.98406,3.48583 2.05292,6.92762 3.21875,10.34375 1.16583,3.41613 2.40742,6.81438 3.75,10.15625 1.34258,3.34187 2.79817,6.64322 4.3125,9.90625 1.51433,3.26303 3.1002,6.47663 4.78125,9.65625 1.68105,3.17962 3.43848,6.3146 5.28125,9.40625 1.84277,3.09165 3.78178,6.1259 5.78125,9.125 1.99947,2.9991 4.0676,5.97301 6.21875,8.875 2.15115,2.90199 4.35843,5.73095 6.65625,8.53125 2.29782,2.8003 4.68552,5.55596 7.125,8.25 2.43948,2.69404 4.95513,5.35428 7.53125,7.9375 2.57612,2.58322 5.1985,5.09468 7.90625,7.5625 2.70775,2.46782 5.47814,4.87089 8.3125,7.21875 2.83436,2.34786 5.73154,4.65168 8.6875,6.875 2.95596,2.22332 5.98995,4.37453 9.0625,6.46875 3.07255,2.09422 6.19088,4.13321 9.375,6.09375 3.18412,1.96054 6.42807,3.83395 9.71875,5.65625 3.24202,1.79535 6.53438,3.53074 9.875,5.1875 8.60365,1.24152 17.42115,1.83311 26.34375,2 3.47574,-2.8631 6.94813,-5.76983 10.25,-9 4.13802,-4.04816 8.12724,-8.378 11.96875,-12.96875 3.84151,-4.59075 7.54357,-9.4669 11.0625,-14.5625 3.51893,-5.0956 6.86096,-10.4373 10.03125,-16 3.17029,-5.5627 6.14191,-11.32044 8.9375,-17.3125 2.79559,-5.99206 5.41768,-12.21007 7.8125,-18.59375 2.39482,-6.38368 4.56326,-12.94995 6.53125,-19.6875 1.96799,-6.73755 3.73491,-13.63382 5.25,-20.6875 1.51509,-7.05368 2.77638,-14.26168 3.8125,-21.59375 1.03612,-7.33207 1.84391,-14.80228 2.375,-22.375 0.53109,-7.57272 0.8125,-15.25563 0.8125,-23.03125 0,-7.77562 -0.28141,-15.45853 -0.8125,-23.03125 -0.53109,-7.57272 -1.33888,-15.04293 -2.375,-22.375 -1.03612,-7.33207 -2.29741,-14.50882 -3.8125,-21.5625 -1.51509,-7.05368 -3.28201,-13.9812 -5.25,-20.71875 -1.96799,-6.73755 -4.13643,-13.30382 -6.53125,-19.6875 -2.39482,-6.38368 -5.01691,-12.57044 -7.8125,-18.5625 -2.79559,-5.99206 -5.76721,-11.78105 -8.9375,-17.34375 -3.17029,-5.5627 -6.51232,-10.9044 -10.03125,-16 -3.51893,-5.0956 -7.22099,-9.9405 -11.0625,-14.53125 -3.84151,-4.59075 -7.83073,-8.92059 -11.96875,-12.96875 -4.02558,-3.93816 -8.21814,-7.57933 -12.5,-10.96875 z"
         style="fill:url(#radialGradient5474);fill-opacity:1;stroke:#000000;stroke-width:10;stroke-miterlimit:4;stroke-opacity:1;stroke-dasharray:none"
         inkscape:connector-curvature="0" />
      <path
         id="path5403"
         d="m 326.5,620.125 c 1.01457,-0.37614 2.05492,-0.70534 3.0625,-1.09375 3.58027,-1.38015 7.105,-2.8429 10.59375,-4.375 3.48875,-1.5321 6.95153,-3.13302 10.34375,-4.8125 3.39222,-1.67948 6.74057,-3.4277 10.03125,-5.25 3.29068,-1.8223 6.50338,-3.72696 9.6875,-5.6875 3.18412,-1.96054 6.3337,-3.96828 9.40625,-6.0625 3.07255,-2.09422 6.07529,-4.27668 9.03125,-6.5 2.95596,-2.22332 5.85314,-4.49589 8.6875,-6.84375 2.83436,-2.34786 5.60475,-4.75093 8.3125,-7.21875 2.70775,-2.46782 5.36138,-5.01053 7.9375,-7.59375 2.57612,-2.58322 5.09177,-5.21221 7.53125,-7.90625 2.43948,-2.69404 4.79593,-5.4497 7.09375,-8.25 2.29782,-2.8003 4.53635,-5.66051 6.6875,-8.5625 2.15115,-2.90199 4.21928,-5.84465 6.21875,-8.84375 1.99947,-2.9991 3.90723,-6.03335 5.75,-9.125 1.84277,-3.09165 3.63145,-6.22663 5.3125,-9.40625 1.68105,-3.17962 3.26692,-6.42447 4.78125,-9.6875 1.51433,-3.26303 2.93867,-6.56438 4.28125,-9.90625 1.34258,-3.34187 2.61542,-6.70887 3.78125,-10.125 1.16583,-3.41613 2.23469,-6.85792 3.21875,-10.34375 0.98406,-3.48583 1.85897,-7.01154 2.65625,-10.5625 0.79728,-3.55096 1.51952,-7.13848 2.125,-10.75 0.60548,-3.61152 1.09133,-7.27 1.5,-10.9375 0.40867,-3.6675 0.73066,-7.34358 0.9375,-11.0625 0.20684,-3.71892 0.3125,-7.45298 0.3125,-11.21875 0,-3.76577 -0.10566,-7.53108 -0.3125,-11.25 -0.20684,-3.71892 -0.52883,-7.395 -0.9375,-11.0625 -0.40867,-3.6675 -0.89452,-7.32598 -1.5,-10.9375 -0.60548,-3.61152 -1.32772,-7.19904 -2.125,-10.75 -0.79728,-3.55096 -1.67219,-7.04542 -2.65625,-10.53125 -0.98406,-3.48583 -2.05292,-6.95887 -3.21875,-10.375 -1.16583,-3.41613 -2.43867,-6.78313 -3.78125,-10.125 -1.34258,-3.34187 -2.76692,-6.64322 -4.28125,-9.90625 -1.51433,-3.26303 -3.1002,-6.47663 -4.78125,-9.65625 -1.68105,-3.17962 -3.46973,-6.34585 -5.3125,-9.4375 -1.84277,-3.09165 -3.75053,-6.1259 -5.75,-9.125 -1.99947,-2.9991 -4.0676,-5.94176 -6.21875,-8.84375 -2.15115,-2.90199 -4.38968,-5.7622 -6.6875,-8.5625 -2.29782,-2.8003 -4.65427,-5.55596 -7.09375,-8.25 -2.43948,-2.69404 -4.95513,-5.32303 -7.53125,-7.90625 -2.57612,-2.58322 -5.22975,-5.12593 -7.9375,-7.59375 -2.70775,-2.46782 -5.47814,-4.87089 -8.3125,-7.21875 -2.83436,-2.34786 -5.73154,-4.62043 -8.6875,-6.84375 -2.95596,-2.22332 -5.9587,-4.37453 -9.03125,-6.46875 -3.07255,-2.09422 -6.22213,-4.13321 -9.40625,-6.09375 -3.18412,-1.96054 -6.39682,-3.8652 -9.6875,-5.6875 -3.29068,-1.8223 -6.63903,-3.57052 -10.03125,-5.25 -3.39222,-1.67948 -6.855,-3.2804 -10.34375,-4.8125 -0.4434,-0.19472 -0.89883,-0.3702 -1.34375,-0.5625 C 285.52686,256.49584 248.5,334.43229 248.5,425.0625 c 0,83.46437 31.42364,156.14265 78,195.0625 z"
         style="fill:none;stroke:#000000;stroke-width:10;stroke-miterlimit:4;stroke-opacity:1;stroke-dasharray:none"
         inkscape:connector-curvature="0" />
      <path
         inkscape:connector-curvature="0"
         id="path5479"
         d="m 335.37064,224.0371 -6.06091,385.87826"
         style="fill:none;stroke:#000000;stroke-width:10;stroke-linecap:butt;stroke-linejoin:miter;stroke-miterlimit:4;stroke-opacity:1;stroke-dasharray:none" />
      <path
         inkscape:connector-curvature="0"
         id="path5501"
         d="m 133.34014,417.98638 408.10162,2.02031"
         style="fill:none;stroke:#000000;stroke-width:10;stroke-linecap:butt;stroke-linejoin:miter;stroke-miterlimit:4;stroke-opacity:1;stroke-dasharray:none" />
      <path
         inkscape:connector-curvature="0"
         id="path5501-1"
         d="m 165.66502,322.02189 347.49247,2.02031"
         style="fill:none;stroke:#000000;stroke-width:10;stroke-linecap:butt;stroke-linejoin:miter;stroke-miterlimit:4;stroke-opacity:1;stroke-dasharray:none" />
      <path
         inkscape:connector-curvature="0"
         id="path5501-6"
         d="m 149.50258,505.86965 363.65491,2.02031"
         style="fill:none;stroke:#000000;stroke-width:10;stroke-linecap:butt;stroke-linejoin:miter;stroke-miterlimit:4;stroke-opacity:1;stroke-dasharray:none" />
    </g>
    <g
       id="g5633"
       transform="matrix(0.14314453,0.09585554,-0.09548246,0.14370383,167.27483,352.11208)">
      <g
         id="g5565">
        <rect
           style="fill:none;stroke:#000000;stroke-width:15.54493713;stroke-miterlimit:4;stroke-opacity:1;stroke-dasharray:none"
           id="rect5544"
           width="288.90363"
           height="149.50258"
           x="125.25892"
           y="666.48389" />
        <path
           style="fill:none;stroke:#000000;stroke-width:7.77246857;stroke-linecap:butt;stroke-linejoin:miter;stroke-miterlimit:4;stroke-opacity:1;stroke-dasharray:none"
           d="m 131.31983,666.48391 121.21831,72.73098"
           id="path5548"
           inkscape:connector-curvature="0" />
        <path
           style="fill:none;stroke:#000000;stroke-width:7.77246857;stroke-linecap:butt;stroke-linejoin:miter;stroke-miterlimit:4;stroke-opacity:1;stroke-dasharray:none"
           d="m 414.16254,666.48391 -159.6041,72.73098"
           id="path5550"
           inkscape:connector-curvature="0" />
      </g>
      <g
         transform="matrix(0.40208868,0,0,0.38457531,-43.399576,697.97044)"
         id="g5560">
        <path
           inkscape:connector-curvature="0"
           id="path5552"
           d="m 561.64481,95.747726 c 0.56026,27.259174 -24.3589,51.440784 -51.33222,51.578554 -25.15037,1.27544 -50.82858,-17.03952 -54.9494,-42.43299 -4.11441,-21.425768 7.32072,-44.817043 27.01084,-54.386448 21.30515,-11.366127 50.30501,-7.107655 66.17736,11.532657 8.22198,9.153236 13.38737,21.30691 13.09342,33.708227 z"
           style="fill:none;stroke:#000000;stroke-width:19.76547813;stroke-miterlimit:4;stroke-opacity:1;stroke-dasharray:none" />
        <path
           inkscape:connector-curvature="0"
           id="path5556"
           d="m 474.7717,56.351773 c 8.76547,-1.301776 1.34428,11.736902 8.21062,13.319576 2.44517,6.472454 10.72534,6.642606 14.96615,11.454697 3.95558,3.77508 5.48835,9.391499 9.81393,12.885659 3.40761,2.996795 6.6063,6.327145 10.08835,9.164005 6.60957,3.79904 11.1889,10.09495 17.25981,14.50868 2.71457,2.56987 7.17638,8.90393 10.37181,7.35776"
           style="fill:none;stroke:#000000;stroke-width:19.76547813;stroke-linecap:butt;stroke-linejoin:miter;stroke-miterlimit:4;stroke-opacity:1;stroke-dasharray:none" />
        <path
           inkscape:connector-curvature="0"
           id="path5558"
           d="m 454.56865,114.94062 c 8.90698,-3.70795 16.80941,-9.7368 26.26396,-12.12183 3.47347,0.54803 4.21469,-4.43825 8.27304,-3.834901 7.01399,-3.220338 14.54524,-4.698002 22.06553,-6.129926 6.31811,-0.798249 10.63325,-5.749491 16.40707,-7.751734 6.50474,-1.988431 13.10718,-4.323322 18.14023,-9.081966 1.08279,-0.966871 7.04927,-7.507031 3.8045,-3.506049"
           style="fill:none;stroke:#000000;stroke-width:19.76547813;stroke-linecap:butt;stroke-linejoin:miter;stroke-miterlimit:4;stroke-opacity:1;stroke-dasharray:none" />
      </g>
      <path
         transform="matrix(0.40208868,0,0,0.38457531,-42.993406,744.19953)"
         d="m 561.64481,95.747726 c 0,28.452484 -23.96982,51.517784 -53.53809,51.517784 -29.56827,0 -53.53809,-23.0653 -53.53809,-51.517784 0,-28.452484 23.96982,-51.51778 53.53809,-51.51778 29.56827,0 53.53809,23.065296 53.53809,51.51778 z"
         sodipodi:ry="51.51778"
         sodipodi:rx="53.538086"
         sodipodi:cy="95.747726"
         sodipodi:cx="508.10672"
         id="path5552-8"
         style="fill:none;stroke:#000000;stroke-width:19.76547813;stroke-miterlimit:4;stroke-opacity:1;stroke-dasharray:none"
         sodipodi:type="arc" />
    </g>
  </g>
</svg>
